<?xml version="1.0" encoding="utf-8"?>
<!-- Generator: Adobe Illustrator 17.0.0, SVG Export Plug-In . SVG Version: 6.00 Build 0)  -->
<!DOCTYPE svg PUBLIC "-//W3C//DTD SVG 1.1//EN" "http://www.w3.org/Graphics/SVG/1.1/DTD/svg11.dtd">
<svg version="1.1" id="Réteg_1" xmlns="http://www.w3.org/2000/svg" xmlns:xlink="http://www.w3.org/1999/xlink" x="0px" y="0px"
	 width="312px" height="240px" viewBox="0 0 312 240" enable-background="new 0 0 312 240" xml:space="preserve">
<g id="bulgar_2_">
	<path opacity="0.5" fill="#F9F4A6" stroke="#010101" stroke-miterlimit="10" enable-background="new    " d="M307.102,139.52
		c-0.062,0.242-0.167-0.083-1,0.417s-2,0.75-2.5,0.75s-1.083-0.167-1.833-0.167s-1.417-0.667-2.333,0.167
		c-0.917,0.833-2.333,2.167-3.417,3c-1.083,0.833-1.917,1-3.167,1.083s-2.833,0.833-3.667,1.25s-1.75,0.5-2.667,1.667
		s-0.417,2.167-2,2.25s-4.833-1.75-5.5-1.833s-3.833-1.5-4.75-2.083s-4.5-1.833-5.5-2.167c-1-0.333-2.667-0.917-4.167-0.583
		s-3.833,0.417-4.667,0.417s-2.083,0.583-2.667,0.917c-0.583,0.333-0.833,0.667-1.917,1.917c-1.083,1.25-3,3.333-3.917,4.167
		c-0.917,0.833-3.583,3.083-4.083,3.167c-0.5,0.083-4.5,2.333-4.833,2.333s-4.083,1-4.75,1.25s-1.75,2.083-1.75,4.5
		s-0.75,5.083-1.917,5.667c-1.167,0.583-4.417,1-5.333,1.583c-0.917,0.583-3.25,3.417-3.5,4.25s-0.667,2.833-0.667,3.417
		c0,0.583-0.5,0.333-1.667,0.333s-2-0.167-3.167-0.083c-1.167,0.083-4.417,0.167-5.75,2.5c0,0-1.75,1.75-1.917,2.333
		s-0.417,1.75,0.167,2.167c0.583,0.417,2.5,1.667,3.417,2.417s2.583,2.583,2.75,3.25s1.083,2.417,1.25,4s0.5,3.5,0.667,5
		s-0.083,3.583-0.833,5s-1.167,2.083-3.083,3.25s-4,2.833-6.417,3s-4.833,0.583-6.917,1.417c-2.083,0.833-2.833,1.167-5.333,1.333
		s-5.917,0.583-7.833,2.417c-1.917,1.833-5,2.667-6.5,3.75s-3,2.25-4.25,2c0,0-5.083-2.083-6.25-2.75s-6.083-2.167-7.167-2.667
		c-1.083-0.5-4.417-1.167-5.667-1.167s-4.417,0.083-5.333,0.833c-0.917,0.75-3,1.25-3.75,1.333s-1.583-0.25-2.833-1
		s-2.833-1.167-3.917-1.083c-1.083,0.083-2.333,0.417-3.25-0.417c-0.917-0.833-1.5-2-2.5-3s-1.25-2.583-2-2.667
		c-0.75-0.083-1.667-0.833-4.667,0s-6.917,2.667-7.25,2.667s-3.5-1-3.917-0.667s-1.833,1.75-2.333,1.917s-3.167,0.417-4.25,0.917
		s-3.167,1.75-3.25,3.083s-0.667,3.917-1.417,4.167s-3.583,0.333-4.333,0.417c-0.75,0.083-1.75-0.417-3.167,1s-3.583,3-4.417,3.75
		c-0.833,0.75-6,2.583-8.333,2.5s-6.5-0.083-7.167,0.167s-2.25,1.25-3.583,1.833s-3.667,0.25-4.167,0.917s-3.167,3.75-3.917,4.167
		s-3.333,2-4.833,2.083s-4.583-0.75-5.833-0.75s-1.5-1.083-2-2.417c-0.5-1.333-0.083-3.167-1.083-6.583s-0.917-4.75-1.5-6.833
		s0.458-3.292,1.208-5.792s2.5-5.625,0.125-6.75s-5-2.875-6.5-6s-2.25-7.75-3.75-9.125s-3.75-1.375-7.125-2.125
		s-7.375,0.125-10.25-2.625s-5-3.875-6.875-6.625s-3.5-3.5-2.625-6.125s3-4.5,3.625-5.625s3.875-5,2.25-6.875s-4.5,0-5.75-5.125
		s-0.5-8.625-0.75-11.25s-2.75-7.75-2.125-8.25s2.5-2,4.25-2.5s6.875,0.375,8.25-1.25s1.125-4.625,2.25-6.625s4.125-5.75,5.625-8.25
		s3.625-3.125,2.25-6.5s-2.75-2-5-3.75s-2.75-7.125-7-8.125s-5.75-2.25-9.75-3.5s-4.125-1-5.75-4.625s-1.875-6.125-4-8.875
		s-4.875-6.125-5.5-7.25s-1.75-2.792-1.25-5.792S0.6,66.689,1.6,63.189s0.833-3,3.333-5.167s5.167-0.833,5-5s1.333-4.167,1.167-9
		c0,0,2.167-1.5,4.333-0.333c2.167,1.167,3.833,3.167,5.667,3.167c1.833,0,5.833,1.667,7.667,1.667c1.833,0,4.333,2.667,3.333,4
		s-3,1.333-5,4.167c-2,2.833-5.833,7-1.333,10.167s6.833,3,9.5,2.333s3.833-1.833,7.167-3.333s7.5-3.167,11-3.5s10,0.833,13,0.667
		s6.333,0.667,7.833,0.833c1.5,0.167,4.667,1,8.167,1s5.5,1.833,8.667,1.833s1.833,0.5,5.833-1.5s3.167-4.667,6.833-6.167
		c3.667-1.5,7.667-1.167,10.333-0.667c2.667,0.5,5.333,2.333,7.5,0.833s7.833-2.667,11.333-3.167s7.333-0.333,10.167-0.333
		c2.833,0,3.833,1.833,6.333,2s10.167-1,13.333-3.833c3.167-2.833,7.333-5.333,9-6.667c1.667-1.333,2.167-4.667,4-8s6-7.833,7.5-9.5
		s2.5-3.167,5-4.833c2.5-1.667,5.333-4.5,7.833-5s4.833-0.833,7.833-2.333s7.667-2.167,10.5-5.833
		c2.833-3.667,7.667-5.333,10.167-5.667s4.167-0.333,7.667-0.5s3.167-1.333,7,0.5s1.667,4,8.5,2.5s6.333-3.333,9.333-2.333
		s2.167,5.5,6.833,3.5s6.667-7.5,9.167-0.833c0,0,3.333,5.5,6.167,6.5c2.833,1,7.167,2,12.833,1.167s9.5-1,12.5-1.5
		s2.958-1.125,3.083,0.25s0,0.625,0,0.5s0.5,7.5,1.5,9s3.5,2.125,3,4s-0.5,4.875-1.25,5.75s-1.75,1.625-2,2.625s-0.875,3.25-1,4
		s-1.375,1.5-2.125,0.25s-1.125-2.5-2.875-2.25s-4,0.75-5.375,1.75s-4.125,1-5,1.625s-2.25,2-2.875,3.375s-0.875,2.125-0.875,4.375
		s0.75,3.75-1,5.5s-2.875,1.875-3.375,2.75s-0.625,0.75,0.125,2s1,1.625,0.875,4.125s-0.375,3.5-0.25,6s1.25,5.125,1.25,6.875
		s0,3.5,0.625,5.5s1.875,4.25,2.25,6s1.125,4.375-0.5,4.5s-1.75-0.5-4,0.125s-3.5,1.625-3.5,2.625s-1.25,3.375-1.25,3.375
		s-0.75,1.5-0.75,2.875s0.625,2.25-1.125,2.625s-2.125-0.625-4.125,1.5s-2,1.875-2,3.75s-1.125,1.75,0,3.25s2.125,1.25,2.875,1
		s1.25-1.5,2.625-1.5s2.25,0.5,3.25,0.5s2,1.625,2.75,1.125s2-0.125,2.125,0.5s1.625,4.625,1.875,5s0.375,0.125,1.375,0
		s1.25,0.5,1.25,1.75s0.5,2.875,1.625,4s4,1.875,5.125,3s1.375,1.5,2.75,2.5S307.643,137.395,307.102,139.52z"/>
</g>
</svg>
