<?xml version="1.0" encoding="utf-8"?>
<!-- Generator: Adobe Illustrator 17.0.0, SVG Export Plug-In . SVG Version: 6.00 Build 0)  -->
<!DOCTYPE svg PUBLIC "-//W3C//DTD SVG 1.1//EN" "http://www.w3.org/Graphics/SVG/1.1/DTD/svg11.dtd">
<svg version="1.1" id="Réteg_1" xmlns="http://www.w3.org/2000/svg" xmlns:xlink="http://www.w3.org/1999/xlink" x="0px" y="0px"
	 width="762px" height="800px" viewBox="0 0 762 800" enable-background="new 0 0 762 800" xml:space="preserve">
<g id="portugal_1_">
	<path fill="#F7F3AA" stroke="#030303" stroke-miterlimit="10" enable-background="new    " d="M375.871,451.647
		c0,0-1.853-0.154-4.118,0.772c0,0-3.14,1.544-3.81,1.699c-0.669,0.154-1.493,0.206-2.471-1.184c0,0-1.133-1.905-2.42-2.317
		c-1.287-0.412-1.853-0.257-2.111-0.257c-0.258,0-1.184-0.772-1.338-0.875s-0.772-0.36-0.875-0.052
		c-0.103,0.309-0.772,0.052-1.184-0.257c-0.412-0.309-0.824-0.772-1.338-0.978c-0.515-0.206-0.824-0.566-1.184-0.103
		c-0.36,0.463-0.721,0.721-1.287,0.618c-0.566-0.103-0.875-0.463-1.905-0.206s-2.008,0.412-2.162,0.515s-0.206-0.515-0.669-0.824
		c0,0,3.346-3.655,3.346-5.303c0,0,3.192-3.655,2.059-5.612c0,0,1.596-2.471,0.927-2.934c0,0,1.287-3.243,0.772-3.81
		c0,0-1.081-0.618-0.927-0.978c0.154-0.36,0.772-0.927,1.184-1.699c0.412-0.772,1.544-2.317,1.75-3.398
		c0.206-1.081,0.257-3.141,0.206-3.449c-0.052-0.309-1.133-2.523-1.133-2.523s1.03,0.824,1.39,1.133s0.875,0.618,1.287,0.875
		c0.412,0.257,0.566,0,0.36-0.206s-0.566-0.309-0.154-0.927c0.412-0.618,0.309-0.927-0.103-1.081
		c-0.412-0.154-0.772-0.618-0.772-0.206s0.412,0.927,0.052,0.772c-0.36-0.154-0.669-0.257-1.081-0.618
		c-0.412-0.36-0.515-0.309-0.927-0.309c-0.412,0-0.566,0.36-1.236,0.566c-0.669,0.206-1.956,0.154-2.626,0.154
		c-0.669,0-1.699,0.412-1.75,0.103c-0.051-0.309,0.566-0.515,0.721-0.978c0.154-0.463,0.618-0.927,0.515-1.75
		c-0.103-0.824-0.566-2.111-0.618-2.677s1.287-0.052,1.699,0.052c0.412,0.103,0.824,1.338,1.03,1.03s0.36-0.721,0.824-0.721
		c0.463,0,0.257-0.566,0.824-0.721c0.566-0.154,1.75-0.463,1.596-0.772c-0.154-0.309-0.257-0.978-0.618-0.824
		c-0.36,0.154-0.412,0-0.463-0.36s-0.206-0.978-0.669-0.36c-0.463,0.618-1.133,1.647-1.544,1.956
		c-0.411,0.309-0.721,0.412-1.493,0.412s-0.772-0.515-1.39-0.412c-0.618,0.103-0.875-0.154-1.338-0.257
		c-0.463-0.103-1.493-0.463-1.699-0.618c-0.206-0.154,0.052-0.206,0.103-0.824S349,409.586,349,409.586
		c0.154,0,0.566-0.927,0.927-1.338s1.236-1.853,1.39-2.677c0.154-0.824,0.463-1.493,0.978-2.111c0.515-0.618,1.442-1.75,1.544-2.626
		c0.103-0.875,0.052-1.647-0.154-2.162s-0.772-0.515-0.206-0.515s1.081,0.36,1.699,0c0.618-0.36,2.626-1.647,3.501-2.471
		s1.493-2.626,2.214-3.398c0.721-0.772,1.853-3.14,2.832-4.479s1.905-2.883,1.905-3.295s-0.36-1.493-0.36-1.493
		s1.544-2.523,2.111-3.501c0.566-0.978,2.728-5.714,3.037-6.075c0.309-0.36,3.243-6.538,3.243-6.744s-0.36-4.222-0.36-4.788
		s-0.257-1.133-0.257-2.265c0-1.133,0.36-2.626,0.36-3.089s-0.206-1.905-0.206-2.78s0.206-1.236,0.257-2.626
		c0.052-1.39,0.566-2.832,0.566-2.832s2.111-1.133,2.574-1.596c0.463-0.463,1.338-1.236,1.853-1.287
		c0.515-0.052,1.081,0.103,1.647,0.309s1.493,0.36,2.111,0.257c0.618-0.103,2.317-0.669,2.471-0.669s0.978,0.978,1.338,1.236
		c0.36,0.258,0.721,0.309,0.412,0.978s-0.515,0.721-0.875,1.287c-0.36,0.566-1.544,1.03-0.772,2.78c0,0,0.669,1.287,1.647,1.03
		c0,0,0.721-0.515,1.287-0.772c0.566-0.257,0.927-0.206,1.647,0.206c0.721,0.412,1.184-0.206,2.214,0.206
		c1.03,0.412,2.214,2.059,2.523,2.059s0.721-0.515,1.133-0.257c0.412,0.257,0.618,1.287,2.368,0.927s2.471-0.875,2.626-1.133
		c0.154-0.257,0.515-0.875,1.287-0.618s1.905,0.721,2.059,0.309s0.257-0.772,0.978,0.103c0.721,0.875,0.412,0.721,1.03,0.721
		c0.618,0,1.03,0.052,1.699,0.412s1.544,0.463,1.956,0.515c0.412,0.052,0.875,0.618,0.875,0.927s-0.309,1.802-0.515,2.265
		s-0.515,1.493-0.36,2.008c0.154,0.515,1.03,0.927,1.493,0.927s1.236,0.206,1.647,0.669c0.412,0.463,1.493,1.338,1.442,1.699
		c-0.052,0.36-1.184,2.162-1.287,2.42c-0.103,0.257-2.008,2.059-2.574,2.265s-2.574,0.978-3.295,1.236
		c-0.721,0.257-2.214,0.824-2.574,1.544c-0.36,0.721-1.184,1.338-1.596,1.802c-0.412,0.463-1.853,0.463-1.905,0.875
		s-0.154,0.824,0.154,1.338c0.309,0.515,0.36,1.75,0.36,2.471s-0.669,3.037-0.772,3.707c-0.103,0.669-0.412,1.133-0.412,1.853
		s0.154,0.721-0.257,1.853c-0.411,1.132-0.721,0.515-0.721,1.03s0.257,1.853-0.154,2.214c-0.411,0.361-0.412,0.669-0.772,0.721
		c-0.36,0.052-1.699,0-2.162,0.515s-0.618,0.772-0.566,1.442s0.463,0.618,0.772,1.596c0.309,0.978,0.824,1.39,0.515,2.419
		c-0.309,1.03-0.206,1.03-0.824,2.059c-0.618,1.03-0.927,1.596-1.596,2.471c-0.669,0.875-0.618,1.184-1.699,1.287
		c-1.081,0.103-2.162-0.206-3.14-0.206s-1.236-0.154-2.317-0.412c-1.081-0.257-1.39-0.721-1.802-0.412
		c-0.412,0.309-0.669,0.309-0.206,1.236c0,0,0.824,1.442,1.081,1.802c0.257,0.36,0.927,0.669,1.03,1.236
		c0.103,0.566-0.206,1.647-0.257,2.111c-0.052,0.463,0.103,0.927,0.257,1.236c0.154,0.309,0.463,1.133,0.412,1.544
		c-0.052,0.412-0.052,0.772,0.257,1.029c0.309,0.257,0.721,0.669,0.721,1.133c0,0.463,0.206,0.978,0.772,1.184
		s1.699,0.463,1.802,1.287c0,0,0.206,0.927-0.052,1.442c0,0-1.544,1.853-1.956,2.42c-0.412,0.567-1.75,1.39-2.162,1.544
		c-0.412,0.154-1.442,0.669-1.802,1.184c-0.36,0.515-0.257,1.802-1.236,3.192s-0.875,2.368-0.309,3.604
		c0.566,1.236,0.978,2.728,1.081,3.243c0.103,0.515,0.309,1.442,0.721,1.596c0.412,0.154,1.03,0.103,1.544,0.103
		c0.515,0,0.721,0.875,0.412,1.596s-0.618,1.493-1.287,1.493c-0.669,0-0.927-0.515-1.699-0.052s-1.442,0.154-1.647,0.412
		c-0.206,0.257-0.618,0.669-0.978,1.133c-0.36,0.463-1.853,1.647-2.317,2.059c-0.463,0.412-1.596,2.008-2.059,2.523
		c-0.463,0.515-0.669,0.515-0.978,1.39c-0.309,0.875-0.463,1.853-0.412,2.419c0.052,0.566,0.618,1.338,0.412,2.008
		c-0.206,0.67-0.515,1.647-0.566,2.42C375.716,450.205,375.871,451.647,375.871,451.647z"/>
</g>
</svg>
