<?xml version="1.0" encoding="utf-8"?>
<!-- Generator: Adobe Illustrator 17.0.0, SVG Export Plug-In . SVG Version: 6.00 Build 0)  -->
<!DOCTYPE svg PUBLIC "-//W3C//DTD SVG 1.1//EN" "http://www.w3.org/Graphics/SVG/1.1/DTD/svg11.dtd">
<svg version="1.1" id="Réteg_1" xmlns="http://www.w3.org/2000/svg" xmlns:xlink="http://www.w3.org/1999/xlink" x="0px" y="0px"
	 width="762px" height="800px" viewBox="0 0 762 800" enable-background="new 0 0 762 800" xml:space="preserve">
<g id="spain_1_">
	<path fill="#F7F3AA" stroke="#030303" stroke-miterlimit="10" enable-background="new    " d="M470.242,371.43
		c0,0-1.442-1.133-2.574-1.338c-1.133-0.206-2.265,0.824-3.81,0.824s-1.338,1.853-2.986,1.338c-1.647-0.515-1.442-0.824-3.295-1.75
		c-1.853-0.927-3.604-0.412-4.839,0.206c-1.236,0.618-1.442-0.618-1.442-1.029c0-0.412-1.236-1.853-2.059-1.956
		c-0.824-0.103-2.162-0.103-2.574,0.206s-1.853,0.618-2.471,0.618c-0.618,0-1.544-1.236-1.442-2.368s1.03-1.647-0.103-2.677
		s-1.853-1.956-2.677-1.956s-0.515,0.721-1.544-0.515c-1.03-1.236-2.986-1.03-3.707-1.75c-0.721-0.721-2.368-1.647-2.471-1.236
		c-0.103,0.412,0.103,2.574-0.824,2.986c-0.927,0.412-4.222,0.309-4.736-0.206c-0.515-0.515-0.103-0.206-1.03-0.206
		s-0.515-1.03-1.544-1.03s-3.501,0.927-4.427,0.206s-0.721-1.75-1.75-2.162c-1.03-0.412-2.059-1.442-3.295-1.133
		c-1.236,0.309-1.03,1.75-2.677-0.206c-1.647-1.956-1.544-2.883-1.956-3.501s-1.338-0.309-2.162-0.412s-0.927,0.206-1.956-0.721
		c-1.03-0.927-1.544-1.03-2.574-1.442s-1.236-1.647-2.162-1.338c-0.927,0.309-0.206,1.236-0.927,0.309
		c-0.721-0.927-0.309-1.442-0.103-2.471c0.206-1.029,1.133-0.824-0.206-1.853c-1.338-1.029-1.442,0.721-2.059-0.309
		c-0.618-1.03-0.206-0.618-1.236-1.338c-1.03-0.721-0.824-2.059-2.265-1.75c-1.442,0.309-3.192,0.721-4.839,0.618
		s-2.368,0.206-3.81-0.721s-1.133-1.338-2.883-2.574c-1.75-1.236-2.368-2.059-3.913-1.236s-1.853,2.059-3.398,1.442
		c-1.545-0.617-0.721-0.412-2.162-0.927c-1.442-0.515-2.162-1.03-2.78-1.647c-0.618-0.618,0.206-0.515-0.927-1.75
		c-1.133-1.236-2.986-0.515-3.501,0.206c-0.515,0.721-1.03-0.412-1.236-0.721s-7.413,0.309-11.532-0.618l-3.398-0.618
		c0,0-1.133-0.824-1.956-1.338c-0.824-0.515-3.398-1.442-4.118-1.75s-2.368-1.442-3.192-1.544c-0.824-0.103-3.089-0.927-3.604-1.338
		c-0.515-0.411-1.442-1.133-2.162-1.853s-2.059-0.515-2.78-0.309s-1.133,0.721-2.368,0.309c-1.236-0.412-1.236-0.412-2.574-0.412
		c-1.338,0-4.633-1.03-5.56-1.338c-0.927-0.309-3.398-1.544-4.53-1.442s-2.677,0-3.604-0.412s-1.236-1.544-1.647-2.368
		c-0.412-0.824-2.78-3.089-2.986-2.677c-0.206,0.412-1.133-0.618-1.544-0.824c-0.412-0.206-1.853-0.309-1.956,0.103
		c-0.103,0.412-1.133,1.133-1.133,0.103c0-1.03,0.103-1.133-0.618-1.03c-0.721,0.103-2.059,0.927-2.471,1.03
		c-0.412,0.103-2.368,0.206-2.368,0.206s-1.133,0.618-1.647,1.236c-0.515,0.618-1.544,1.647-0.721,1.853
		c0.824,0.206,1.647-0.206,1.236,0.721c-0.412,0.927-0.412,2.265-0.412,2.265s-0.618,0.721-0.824,0s-0.412-2.162-0.824-1.75
		c-0.412,0.412-1.236,0.721-1.544,0.618c-0.309-0.103-1.647,0.515-1.647,0.515s-1.442,0.103-2.677-0.309
		c-1.235-0.412-2.471-1.236-2.986-1.133c-0.515,0.103-1.03,0-1.338,0.927c-0.309,0.927-0.412,0.309-1.338,0.824
		c-0.927,0.515-1.236-0.618-1.853-0.103c-0.618,0.515-1.544,1.133-1.956,1.956c-0.412,0.824-1.236,1.75-1.236,2.162
		s0.309-0.412,0.824,0.412c0.515,0.824,0.412,1.133,0.618,2.265c0.206,1.133,0.335,2.355,0.914,2.471
		c0.579,0.116,1.043-0.077,1.274-0.077c0.231,0,0.386,0.116,0,0.386c-0.386,0.27-1.39,0.927-1.544,1.351
		c-0.154,0.425-0.386,0.734-0.463,1.274c-0.077,0.541-0.077,2.626-0.077,2.78c0,0.154,0.734-0.425,1.12-0.695
		s0.695-0.734,1.043-1.042c0.347-0.309,0.425-0.386,0.888-0.463c0.463-0.077,0.579-0.116,0.618,0.309
		c0.039,0.425,0.154,0.502-0.193,0.811c-0.347,0.309-0.811,0.425-0.811,0.811s0.154,0.386,0.077,0.965
		c-0.077,0.579-0.772,1.274-0.772,1.699s0.154,0.811,0.695,0.849c0.541,0.039,0.927-0.077,0.618,0.502
		c-0.309,0.579-0.579,1.042-1.081,1.351c-0.502,0.309-0.347,0.232,0.232,0.425s1.776,0.232,1.699,0.502s-0.347,0.116-0.772,0.541
		c-0.425,0.425-1.043,0.734-1.506,1.042c-0.463,0.308-1.004,0.27-1.313,0.734c-0.309,0.463-0.734,0.541-0.888,1.197
		s-0.193,1.622-0.193,1.969s0.039,1.506,0,1.776s-0.039,0.27-0.039,0.27s0.502-0.039,0.772-0.232
		c0.27-0.193,0.579-0.309,1.506-0.927s1.274-1.39,2.471-1.506s1.236,0.463,2.703,0.463c1.467,0,2.201-0.541,2.819-0.618
		c0.618-0.077,0.347-0.309,0.965,0.502c0.618,0.811,1.429,0.965,1.274,1.622c-0.154,0.656-1.197,1.39-1.544,1.853
		c-0.347,0.463-0.579,1.351-0.309,1.969c0.27,0.618,0.618,1.429,1.738,1.12s1.583-0.927,2.162-0.772
		c0.579,0.154,0.27,0.463,1.313,0.463s1.969,0.077,2.626,0.541c0.657,0.464,1.351,1.737,1.738,1.622
		c0.386-0.116,0.656-0.849,1.429,0.154c0.773,1.003,2.239,0.386,2.934,0.193s1.429-0.232,1.738-1.043
		c0.309-0.811,1.236-0.425,1.622-0.27c0.386,0.154,1.351,0.734,1.699-0.039s0.927,1.042,1.506,1.042
		c0.579,0,1.043-0.116,1.738,0.232c0.695,0.347,1.429,0.695,2.201,0.695s0.965,0.502,1.004,1.158s-0.463,1.583-0.579,2.124
		s-0.541,2.085-0.039,2.432c0.502,0.348,1.12,0.309,1.969,0.502s2.471,1.892,2.394,2.394c-0.077,0.502-0.463,1.158-1.313,2.239
		c-0.849,1.081-1.429,1.892-3.05,2.587c-1.622,0.695-2.857,0.888-4.131,1.467s-1.313,1.158-2.008,1.815
		c-0.695,0.656-1.12,1.506-1.892,1.544c-0.772,0.039-1.043,0.348-1.004,0.811s0.734,1.853,0.656,2.934s-0.618,3.514-0.849,4.363
		c-0.232,0.849-0.425,0.772-0.386,2.162s-1.043,1.815-0.927,2.587s0.154,1.66-0.077,1.776c-0.232,0.116-0.618,1.042-0.618,1.042
		s-1.969-0.039-2.278,0.27s-0.927,0.579-0.772,1.506c0.154,0.927,0.039,0.348,0.656,1.197s1.043,2.278,0.772,3.128
		s-1.429,2.819-1.853,3.436c-0.425,0.618-1.081,1.583-1.66,2.008c-0.579,0.425-2.124,0.116-3.05,0
		c-0.927-0.116-2.433-0.348-3.05-0.463s-2.124-0.734-2.239-0.193c-0.116,0.541,0.309,1.043,0.579,1.66
		c0.27,0.618,1.197,1.622,1.544,2.046c0.347,0.425,0.541,1.043,0.154,1.892c-0.387,0.849-0.27,0.888,0.116,1.853
		c0.386,0.965,0.425,0.656,0.27,1.699s0.541,0.811,0.888,1.544c0.347,0.734-0.386,1.081,0.618,1.506s1.892,0.309,1.969,1.042
		c0.077,0.734,0.618,1.313-0.425,2.432c-1.043,1.12-1.815,2.394-2.78,2.934c-0.965,0.541-2.471,0.927-2.819,1.699
		s-0.077,1.39-0.618,2.317c-0.541,0.927-1.158,1.738-1.197,2.24s0,1.622,0.463,2.471s0.849,1.853,1.197,3.089
		c0.347,1.236,0.656,1.429,1.467,1.429s1.467-0.077,1.236,0.772c-0.232,0.849-0.463,1.931-1.197,2.317
		c-0.734,0.386-1.004-0.502-1.776-0.116s-1.236,0.463-1.66,0.463c-0.425,0-0.386,0.232-1.12,1.197s-1.892,1.892-2.626,2.471
		s-0.927,0.965-1.506,1.699c-0.579,0.734-1.004,0.656-1.274,1.738s-0.463,1.274-0.386,2.587c0.077,1.313,0.579,1.12,0.154,2.896
		s-0.347,3.398-0.116,3.629c0.232,0.232,1.197,0.347,1.969,0.309c0.772-0.039,1.004,0.116,1.738,0.154
		c0.734,0.038,1.738,0.077,2.085,0.309s1.39,1.042,2.124,1.583s2.124,1.506,2.741,1.815c0.618,0.309,1.351,1.004,1.738,1.544
		c0.386,0.541,1.699,1.969,1.853,2.355c0.154,0.386,0.811,1.583,1.004,2.355c0.193,0.772,0.734,1.313,0.888,1.429
		c0.154,0.116,0.077,0.116-0.425,0.386s-1.081,0.27-1.12,0.734c-0.039,0.463-0.039,1.429,0.154,1.699
		c0.193,0.27,0.309,0.965,1.12,1.042c0.811,0.077,0.541,0.695,0.965,0.849c0.425,0.154,0.849,0.116,0.656,0.386
		c-0.193,0.27-0.772,0.772-0.579,1.004c0.193,0.232,0.965,0.463,0.656,0.695c-0.309,0.232-1.004,0.811-1.004,0.541
		s-0.154-1.467-0.386-1.39c-0.232,0.077-0.154,0.618,0.077,0.927c0.231,0.309,0.232,1.236,0.695,1.931c0,0,0.386,1.699,0.656,2.046
		c0.27,0.348,0.772,0.888,0.888,1.313s0.656,2.046,1.197,2.201c0.541,0.154,1.544-0.077,1.622,0.193
		c0.077,0.27,1.158,1.429,1.313,2.085c0,0,0.077,0.502,0.541,0.463c0.463-0.039,1.158,0.386,1.39,0.695s0.618,0.463,0.965,0.849
		c0.347,0.386,0.154,0.734,0.386,0.849c0.232,0.115-0.232,0.232,0.734-0.116c0.965-0.347,0.772-0.463,1.467-0.579
		c0.695-0.116,0.772,0.232,0.927-0.618c0.154-0.849,0-1.12,0.309-1.429s0.309-0.502,0.734-0.27c0.425,0.232,0.502,0.502,0.502,0.734
		s0.116,1.004,0.27,0.541c0.154-0.463,0.193-0.888,0.656-1.467c0.463-0.579,0.772-1.39,1.274-1.776
		c0.502-0.386,0.309-0.463,0.734-0.927c0.425-0.463-0.077-0.502,0.579-0.888s1.351-0.541,1.892-0.656
		c0.541-0.115,1.351-0.27,2.162-0.27s0.772-0.386,1.197-0.463c0.425-0.077,0.965,0.27,1.158,0.348s0.695,0.193,0.849,0.309
		s0.656,0.27,1.043,0.386s1.081,0.039,1.313-0.039s0.154-0.309,0.502-0.618c0.348-0.309,0.502-0.463,1.004-0.618
		c0.502-0.154,1.39-0.425,1.66-0.811c0.27-0.386,1.699-1.429,1.892-1.544c0.193-0.116,0.618-0.425,1.12-0.116
		c0.502,0.309,0.811,0.309,1.39,0.309s1.043,0.347,1.699,0.309c0.656-0.039,0.927-0.309,1.467-0.27
		c0.541,0.039,0.927,0.386,1.429,0.463s1.042,0.154,1.429,0.077c0.386-0.077,0.849,0,1.158,0.116
		c0.309,0.116,1.197,0.579,1.583,0.734c0.386,0.154,0.811,0.077,1.236,0.077c0.425,0,0.811-0.077,1.39,0.309
		c0.579,0.386,1.236,0.734,1.622,0.965c0.386,0.232,1.429,0.541,2.317,0.116s1.583-0.386,1.969-0.386
		c0.386,0,1.236,0.27,1.931,0.425c0.695,0.154,1.544,0.193,2.162,0.386s1.004,0.193,1.351,0.193c0.348,0,0.541-0.039,0.656,0.425
		c0.116,0.463,0.309,0.772,0.772,0.772c0.463,0,0.695-0.077,1.043,0.232c0.347,0.309,1.043,0.541,1.506,0.618
		s0.888-0.425,1.081-0.734c0.193-0.309,0.154-0.309,0.695-0.734s0.27-0.386,0.541-0.579c0.271-0.193,0.502-0.232,1.004-0.27
		c0.502-0.039,0.618,0.154,1.12,0.193c0.502,0.039,0.618-0.039,0.927-0.154c0.309-0.116,0.463-0.232,0.772,0
		c0.309,0.232,0.927,0.386,1.197,0.811s1.043,1.467,1.197,1.699c0.154,0.232,0.309,0.386,0.579,0.232
		c0.27-0.154,1.043-0.347,1.313-0.463c0.27-0.116,0.039-0.425,0.463-0.695c0,0,0.154-0.077,0.618-0.386
		c0.463-0.309,0.27-0.27,0.772-0.888c0.502-0.618,0.618-0.927,0.965-1.042c0.347-0.116,0.849,0.039,1.236-0.579
		c0.387-0.618,0.154-1.969,1.12-2.973c0.965-1.004,0.772-1.544,1.583-2.432s0.965-1.467,2.008-1.969
		c1.042-0.502,2.085-1.622,2.51-1.622c0.425,0,0.772,0.502,1.004,0.077s0.734-0.888,1.004-1.12c0.27-0.232,0.927-0.116,1.39-0.463
		c0.463-0.348,1.351-0.463,1.969-0.502s0.927,0.116,1.236,0.348s0.772,0.502,0.849,0.386s-0.463-0.502,0.116-0.618
		c0.579-0.116,1.12,0.154,1.66,0.077s0.965-0.116,1.081,0.193s0.116,0.811,0.463,0.618c0.347-0.193,0.656-0.348,1.004-0.425
		c0.348-0.077,1.815,0.348,2.046,0.154c0.232-0.193,0.811-0.463,0.811-0.811c0-0.348-0.27-2.008-0.27-2.008
		s-0.425,0.232-0.193,0.888s0.695,1.544,0.077,1.081c-0.618-0.463-1.815-1.931-1.699-2.548c0.116-0.618,0.579-0.849,1.004-1.313
		c0.425-0.463,0.347-0.309,0.618,0.154s0.618,1.004,0.425,0.502s-0.386-0.734-0.193-1.313c0.193-0.579,0.193-0.579,0.193-0.579
		s-0.193-0.386,0.502-1.004c0.695-0.618,1.544-1.583,1.544-1.583s-0.039-0.116,0.116-0.502c0.154-0.386,0.077-0.888,0.154-1.236
		c0.077-0.347,0.077-1.197,0.541-1.583c0.463-0.386,1.467-0.27,1.699-0.348c0.232-0.077,0.309-1.081,0.348-1.39s0-1.313,0.695-1.544
		c0.695-0.232,1.506,0.193,1.506-0.232s0.734-1.39,0.734-1.39s1.313-0.772,1.66-0.965c0.348-0.193,1.081-0.425,1.351-0.425
		s1.12-0.386,1.506-0.348c0.386,0.039,0.772,0.309,0.888,0.039c0.116-0.27-0.232-0.579-0.039-0.927c0.193-0.347,0-0.27,0.579-0.579
		c0.579-0.309,1.583-0.541,1.66-0.425c0.077,0.116,0.077,0.425,0.348,0.039c0.271-0.386,0.849-0.116,1.622-0.965
		c0.772-0.849,1.158-0.27,1.004-1.274c-0.154-1.004-0.772-1.737-1.313-1.969c-0.541-0.232-1.622-0.502-2.124-0.888
		c-0.502-0.386-1.351-1.815-1.776-2.355c-0.425-0.541-0.772-1.931-1.004-2.51s-0.425-1.737-0.348-2.124
		c0.077-0.386,0.386,0.077,0.077-1.158c-0.309-1.236-0.811-2.703-0.811-3.282s0.193-1.544,0.27-2.008
		c0.077-0.464,1.197-2.51,2.085-3.359c0,0,0.695-0.579,0.811-1.004c0.116-0.425,1.506-2.432,1.892-2.78
		c0.386-0.347,1.583-1.544,1.583-1.544s-0.116-0.193,0.193-0.695c0.309-0.502,0.811-0.927,1.12-1.274
		c0.309-0.348,1.197-0.849,1.467-1.004c0.27-0.154,0.734-1.467,1.506-2.046c0.772-0.579,1.313-0.27,1.853-1.158
		c0.54-0.888,1.429-1.815,1.776-2.355c0.348-0.541,1.197-1.969,1.467-2.471s0.579-0.888,1.158-1.506
		c0.579-0.618,1.853-1.197,2.162-1.197s0.656-0.077,0.772,0.347c0.116,0.425-0.27,0.579-0.579,0.579
		c-0.309,0-1.236,0.116-1.236,0.27s-0.347,0.348,0.154,0.386c0.502,0.039,1.39-0.348,1.969-0.927s1.506-0.927,2.008-1.158
		c0.502-0.232,0.541-1.043,0.541-1.043s-0.656-0.849-0.811-1.004c-0.154-0.154-1.004-0.618-1.004-0.425s-0.116,0.425-0.386,0.039
		s-0.579-0.425,0.154-1.004c0.733-0.579,1.853-1.583,2.162-1.969s1.738-1.66,2.317-1.815c0.579-0.154,1.313-0.656,1.892-0.579
		c0.579,0.077,0.734,0.309,0.965,0.348c0.232,0.039,0.463-0.425,0.734-0.618s0.772-0.656,1.313-0.656
		c0.541,0,1.081,0.309,1.622,0.116s1.236-0.656,1.892-0.695s1.738,0.077,2.587,0s1.429-0.541,2.085-0.541s1.12,0.077,1.699-0.039
		c0.579-0.116,1.236-0.386,1.776-0.386c0.54,0,1.583,0.193,1.853-0.039c0.27-0.232,1.042-1.544,1.544-2.085
		c0.502-0.541,1.042-1.351,1.853-1.66c0.811-0.309,2.162-0.965,3.552-1.467c1.39-0.502,3.243-1.042,3.938-1.39
		c0.695-0.347,1.853-0.965,2.239-1.081c0.386-0.116,1.004-0.386,1.429-0.579s1.39-0.541,1.931-1.236s1.351-0.734,1.738-1.081
		c0.386-0.348,0.772-0.502,1.004-1.081s0.116-0.927,0-1.39s-0.309-0.579-0.27-1.158c0.039-0.579,0.425-0.772,0-1.351
		c-0.425-0.579-0.772-0.579-0.965-1.197s-0.502-0.541-0.27-1.158c0.232-0.618,0.425-0.734,0.811-0.965
		c0.386-0.232,0.193-0.348,0.463-0.077c0.27,0.27,0.425,0.309,0.888,0.309c0.463,0,0.425,0.077,0.849-0.502
		c0.424-0.579,0.734-0.849,0.734-1.081s-0.309-0.347-0.888-0.463s-1.081,0.193-1.39-0.541
		C470.049,372.048,470.242,371.43,470.242,371.43z"/>
	<path fill="#F7F3AA" stroke="#030303" stroke-miterlimit="10" d="M433.639,444.277c0.057,0.205,1.956-1.544,2.42-2.008
		c0.464-0.464,1.853-1.493,2.008-1.544c0.154-0.052,0.36-0.309,0.052-1.03c-0.309-0.721-1.647-1.081-2.368-0.875
		s-0.824,0.103-1.287,0.875c-0.463,0.772-0.927,1.184-1.493,1.184s-1.699-0.257-1.699,0.206s-0.515,0.824-0.206,1.081
		C431.373,442.423,433.278,442.99,433.639,444.277z"/>
	<path fill="#F7F3AA" stroke="#030303" stroke-miterlimit="10" d="M436.985,448.138v0.824c0,0-0.772-0.052-1.338-0.309
		s-0.618-0.103-1.03,0.103c-0.412,0.206-0.875-0.103-0.875-0.566c0-0.463,0.412-0.515,0.721-0.875
		c0.309-0.36,0.978-0.721,1.133-0.566c0.154,0.154,0.309,0.412,0.515,0.721C436.316,447.778,436.779,448.189,436.985,448.138z"/>
	<path fill="#F7F3AA" stroke="#030303" stroke-miterlimit="10" d="M461.336,439.18c0,0,0.309,0.566-0.052,0.927
		c-0.36,0.36-1.133,0.875-1.184,0.309c-0.052-0.566,0.36-0.566,0.669-0.772C461.078,439.438,461.336,439.18,461.336,439.18z"/>
	<path fill="#F7F3AA" stroke="#030303" stroke-miterlimit="10" d="M451.194,429.913c0,0,3.449-1.956,4.324-2.368
		s2.626-1.338,3.14-1.699c0.515-0.36,2.574-1.236,3.089-1.596s1.75-0.927,2.317-0.927c0.567,0,1.699-0.36,2.162-0.206
		s0.36,0.515,0,0.824s-1.544,0.721-1.338,1.03c0.206,0.309,0.927,0.154,0.618,0.772s-0.36,0.978,0.103,1.596
		s0.978,0.875,1.544,0.824c0.566-0.052,1.596-0.566,2.008-0.566s0.875,0.36,0.978,0.669s0.257,0.463,0.052,1.133
		c-0.206,0.669-0.463,0.721-0.772,1.442s-0.412,0.927-0.721,1.338c-0.309,0.412-0.721,0.669-0.875,1.287
		c-0.154,0.618-0.669,1.442-0.669,1.442s-0.618,0.257-0.978,0.669c-0.36,0.412-1.03,0.721-1.338,0.875
		c-0.309,0.154-0.824,0.772-1.03,1.03c-0.206,0.257-0.463,0.257-0.618,0.257c-0.155,0-0.721-0.927-1.236-1.184
		c-0.515-0.257-0.721-0.669-1.338-0.824c-0.618-0.154-1.493-0.721-1.853-0.978s-0.875-0.412-0.824-1.39
		c0.052-0.978,0.206-1.905,0.052-2.214c-0.154-0.309-0.772-0.309-1.03-0.154c-0.257,0.154-0.772,0.154-1.03,0.36
		c-0.257,0.206-0.103,0.257-0.515,0.824c-0.412,0.566-0.927,0.463-1.184,0.257C453.974,432.23,453.871,431.715,451.194,429.913z"/>
	<path fill="#F7F3AA" stroke="#030303" stroke-miterlimit="10" d="M483.473,428.009c0,0,0.669,0.412,0.824-0.36
		c0.154-0.772,0.154-1.03,0.154-1.03s-0.206-0.772-0.206-1.596c0-0.824-0.309-1.184-0.669-1.442
		c-0.36-0.257-0.618-0.463-0.875-0.721s-0.515-0.721-1.081-0.772s-1.236,0.103-1.75,0.103c-0.515,0-0.618-0.052-1.544-0.154
		c-0.927-0.103-1.493,0.154-1.647,0.669s-0.515,1.338,0.103,1.905c0.618,0.566,1.133,0.618,1.39,0.463
		c0.257-0.154,1.184,0.257,1.699,0.566c0.515,0.309,1.39,0.669,1.956,1.236C482.391,427.442,483.421,428.112,483.473,428.009z"/>
</g>
</svg>
