<?xml version="1.0" encoding="utf-8"?>
<!-- Generator: Adobe Illustrator 17.0.0, SVG Export Plug-In . SVG Version: 6.00 Build 0)  -->
<!DOCTYPE svg PUBLIC "-//W3C//DTD SVG 1.1//EN" "http://www.w3.org/Graphics/SVG/1.1/DTD/svg11.dtd">
<svg version="1.1" id="Réteg_1" xmlns="http://www.w3.org/2000/svg" xmlns:xlink="http://www.w3.org/1999/xlink" x="0px" y="0px"
	 width="50px" height="50px" viewBox="0 0 50 50" enable-background="new 0 0 50 50" xml:space="preserve">
<path id="sp-galicia_2_" fill="#FAF4A5" stroke="#030303" stroke-miterlimit="10" enable-background="new    " d="M43.116,11.209
	c0,0,0.075,0.216-0.365,0.632s-1.146,1.015-1.362,1.262s-0.657-0.107-0.937,0.521c-0.28,0.627-0.063,0.888-0.036,1.298
	c0.027,0.411,0.151,1.619,0.314,2.096s0.551,0.678,0.832,1.198s0.308,1.259,0.368,1.548s-0.095,0.936,0.507,0.46
	c0.602-0.476,0.749-0.846,1.03-0.515s0.86,0.994,0.36,1.133c-0.499,0.138-0.857,0.414-1.201,0.49
	c-0.343,0.076-0.608-0.348-0.965,0.173c-0.357,0.521-0.635,1.034-0.121,1.448s0.947,0.216,1.102,0.648s-0.068,0.741,0.198,1.282
	c0.266,0.541,0.318,1.262,0.009,1.262s-0.849,0.36-0.682,0.566s0.064,0.921-0.45,1.284c-0.515,0.363-0.753,0.466-1.406,0.569
	c-0.653,0.103-1.426,1.081-1.426,1.081s-0.257,0.875-0.412,1.184c-0.154,0.309-1.442,1.184-1.03,1.75s1.03,0.566,1.338,0.566
	s1.557,0.206,1.911,0.566c0.354,0.36,0.715,0.463,0.509,1.39c-0.206,0.927-0.309,1.133,0.154,1.647
	c0.463,0.515,0.772,0.927,0.309,1.544c-0.463,0.618-0.503,1.184-0.972,1.39c-0.47,0.206-0.778,0.154-1.396,0.257
	c-0.618,0.103-1.552,1.081-1.934,1.544s-1.206,0.463-0.846,1.03s0.231,1.572,0.142,1.815c-0.089,0.243-0.738,0.457-1.219,0.248
	c-0.48-0.209-0.859-0.762-1.481-0.35c-0.621,0.411-1.119,1.099-1.779,1.329c-0.66,0.229-1.692,0.623-2.203,0.533
	c-0.511-0.09-0.833-0.147-1.312-0.601c-0.479-0.454-0.73-0.629-1.202-0.283c-0.472,0.347-1.087-0.477-1.43-0.806
	s-1.336-1.142-1.735-1.202s-1.939-0.118-1.939-0.118s-0.643-0.534-1.141-0.357c-0.498,0.178-1.023,0.565-1.611,0.694
	c-0.588,0.129-1.724,0.537-2.06-1.779c0,0,0.247-1.161,1.397-2.33c0,0,0.971-1.082,0.52-1.41c-0.451-0.327-1.66-1.589-1.789-1.563
	s-2.005,0.638-2.471,0.669s-1.365-0.082-2.111-0.257s-1.99-0.717-2.771,0.466c0,0-2.454,1.878-3.317,2.02
	c0,0,0.176-2.429,0.076-2.897c-0.1-0.469-0.328-1.139,0.58-1.825c0.908-0.686,3.823-2.346,3.939-2.576s-1.029-0.49-2.239-0.849
	c0,0,1.393-0.892,1.588-1.745c0.014-0.061,0.022-0.122,0.023-0.183c0.011-0.903-1.567,0.59-1.345-1.366c0,0,0.684-1.277,0.699-1.415
	s-0.346-0.975,0.04-1.261s0.981-0.409,0.934-0.867c-0.047-0.459-0.054-1.094-1.37-0.577c0,0-1.674,2.011-2.138,2.062
	c-0.465,0.05-0.225-2.687-0.07-3.112c0,0,0.376-1.286,1.304-1.892c0.929-0.606,1.458-0.951,0.644-0.84
	C8.854,20,7.939,20.632,7.736,18.214c0,0-0.278-3.328-1.553-3.311c0,0-0.297-0.908,3.049-4.203c0,0,0.277-0.409,1.271,0.233
	c0,0,0.973-0.288,1.372-0.361c0.398-0.073,0.152,0.141,0.602-0.735c0.45-0.875,0.441-0.995,1.024-0.86
	c0.583,0.135,2.815,1.038,3.66,1.181s2.043,0.53,2.882,0.075c0.838-0.455,0.793-0.337,1.134-0.307
	c0.341,0.03,0.984-0.383,1.346-0.478c0.362-0.095,0.558,1.459,0.919,1.664s0.759,0.734,0.899-0.475
	c0.139-1.209,0.246-1.303,0.337-1.79c0.091-0.487-0.928-0.409-1.236-0.721s-0.323-0.675,0.339-1.408s1.139-1.435,1.84-1.573
	s2.234-0.188,2.556-0.314c0.322-0.126,2.188-1.194,2.728-1.061s0.256,0.643,0.36,1.061s0.682,0.576,0.908,0.236
	c0.225-0.339,0.927-1.179,1.93-0.527c1.003,0.653,1.009,0.944,1.402,0.926c0.394-0.018,0.938-0.052,1.529,0.507
	c0.591,0.559,1.645,1.275,1.825,3.026c0,0,0.175,1.064,1.798,1.65C40.657,10.65,41.703,11.516,43.116,11.209z"/>
</svg>
