<?xml version="1.0" encoding="utf-8"?>
<!-- Generator: Adobe Illustrator 17.0.0, SVG Export Plug-In . SVG Version: 6.00 Build 0)  -->
<!DOCTYPE svg PUBLIC "-//W3C//DTD SVG 1.1//EN" "http://www.w3.org/Graphics/SVG/1.1/DTD/svg11.dtd">
<svg version="1.1" id="Réteg_1" xmlns="http://www.w3.org/2000/svg" xmlns:xlink="http://www.w3.org/1999/xlink" x="0px" y="0px"
	 width="500px" height="500px" viewBox="0 0 500 500" enable-background="new 0 0 500 500" xml:space="preserve">
<g id="greece_2_">
	<path opacity="0.5" fill="#F9F4A6" stroke="#010101" stroke-miterlimit="10" enable-background="new    " d="M267.782,470.27
		c0,0-2.25-14-1.75-16s2.25-8.25,2.25-8.25s0.5-0.5,1.125,1.125s0.875,2.375,1.75,4.125s1.625,3.25,2.875,2.375
		s3.75-1.75,3.125-3.25s-2.5-5-2.375-6.375s-0.375-3,1.125-3.25s3-0.875,3.5-0.375s0.5,0.5,0.125,2.75s-1.125,3-0.5,4.5
		s1.375,3.125,2.5,3.375s2.875,0.5,4.75-0.125s3.125-0.625,4.125-0.75s2.375-1.25,3.625-2.625s3.375-2.375,4.75-3.375
		s3-1.625,3.875-1.25s1.5,1.375,1,2.125s-1.25,2.625-2.25,3.375s-2.625,0.75-3,1.375s-1.625,1.125,0.125,1.5
		s2.875,0.375,4.875,0.375s3.625-0.25,4.5-0.125s0.5,0,0.125,2.125s-1.25,4-0.375,5.125s1.625,1.25,3,1.125s5.125-1.25,8-2.75
		s3.25-1.875,5.75-4s3.25-4.25,5.75-5.125s5.75-1,8.375-1.375s2.375,0.625,5.25,0.625s6.25-0.25,7.375-0.125s1.25,2,1.375,2.625
		s1.75,0.875,3.5,0.375s6.125-1.25,10-1.75s3.875-0.5,5.125-0.375s1.125,1.125,2.25,0.25s2.625-2,5-2.125s3.5-0.5,4.875-1.375
		s2.375-1.375,4.375-1.375s3.375,0.75,4.75,0.75s3,0.375,2.5,1.375s-2,2-2,4s-0.625,3.5,0,4.5s0.625,2,2.125,2s3.375-0.125,5-0.875
		s3.25-2.5,4-3.125s2.25-2.375,3.375-3.625s2-2.5,2.875-2.75s2-0.5,3.375,0.125s1.75,2.125,3,0.75s1.5-3.25,2.875-4.625
		s2.625-2.875,3.5-3s0.75,0.875,0.625,2.875s0.25,4.875,0.875,5.875s1.625,3.5,1.25,4.625s-0.375,4.5-1.625,5.875s-3.375,2.625-5,2
		s-4.75-1.125-6.5-1.125s-5.75,0.625-7.25,1.5s-1.875,1.625-3.25,2.625s-1,1.5-2.875,1.5s-2.125-1-4.125,0.25s-4.875,2-6.375,2.75
		s-4,1.5-5.5,1.875s-3.125,0.5-5.375,1.125s-5.25,1.375-6.25,1.875s-4.25,2.875-10,3.875s-9.875,1.375-11.625,1.625
		s-5,1.25-5.75,1.875s-3,1.25-3.5,0.75s-0.5-2.5-0.75-3.25s-1-3.5-1.75-5.125s0.125-1.875-3-1.75s-5.25-0.125-7.25-0.375
		s-6.625-1.625-7.75-1.625s-4.875-0.375-7-0.375s-6.625,0.125-8.625,0.75s-9.375,1.875-12,1.875s-9.25,0.125-11,0.125
		s-6.875,1-8.375,1S268.407,471.145,267.782,470.27z"/>
	<path fill="#F9F4A6" stroke="#010101" stroke-miterlimit="10" d="M307.032,492.77c-2.5,0-5,0-4.875,0.375s1.125,2.375,1.75,2.5
		s2.875,0,3.125-1S307.032,492.77,307.032,492.77z"/>
	<path opacity="0.5" fill="#F9F4A6" stroke="#010101" stroke-miterlimit="10" enable-background="new    " d="M298.657,488.395
		l0.625-0.25L298.657,488.395z"/>
	<path opacity="0.5" fill="#F9F4A6" stroke="#010101" stroke-miterlimit="10" enable-background="new    " d="M361.657,441.02
		l-2.5,0.625L361.657,441.02z"/>
	<path opacity="0.5" fill="#F9F4A6" stroke="#010101" stroke-miterlimit="10" enable-background="new    " d="M396.907,473.77
		l-1.25,0.5L396.907,473.77z"/>
	<path opacity="0.5" fill="#F9F4A6" stroke="#010101" stroke-miterlimit="10" enable-background="new    " d="M417.032,436.77
		c-0.375-1-1.625-2.625-1.625-2.625l-0.625,5.75L417.032,436.77z"/>
	<path opacity="0.5" fill="#F9F4A6" stroke="#010101" stroke-miterlimit="10" enable-background="new    " d="M413.157,401.645
		l-0.5,1L413.157,401.645z"/>
	<path opacity="0.5" fill="#F9F4A6" stroke="#010101" stroke-miterlimit="10" enable-background="new    " d="M426.407,400.895
		l-0.875,0.75L426.407,400.895z"/>
	<path opacity="0.5" fill="#F9F4A6" stroke="#010101" stroke-miterlimit="10" enable-background="new    " d="M419.782,384.77v1
		V384.77z"/>
	<path opacity="0.5" fill="#F9F4A6" stroke="#010101" stroke-miterlimit="10" enable-background="new    " d="M389.657,378.145
		l-1.75-0.125L389.657,378.145z"/>
	<path opacity="0.5" fill="#F9F4A6" stroke="#010101" stroke-miterlimit="10" enable-background="new    " d="M382.907,374.27
		c1.25-0.5,2.625-0.125,2.875-1s0.125-1.75-0.875-2.125s-2.125-0.125-3.125-0.875s-2.125-1.25-2.625-0.25s-2.375,1.625-0.875,2.75
		S382.907,374.27,382.907,374.27z"/>
	<path opacity="0.5" fill="#F9F4A6" stroke="#010101" stroke-miterlimit="10" enable-background="new    " d="M358.032,379.77
		c0,0-1.5-3.25-0.875-3s1.375,0.625,2.375,0.75s2.5-1.125,2.75-2.75s0.625-2.375-0.25-1.625s-2.125,3.375-2.125,1.875
		s1-3.875,0.625-4.375s-1.25-0.375-2.125,0.875s-1.625,3.125-2.375,2.25s-1.625-2-0.375-2.875s2.625-2.125,3.625-2.125s0.75,0,2.5,1
		s2.625,0.5,3.125,2s1,2.125,0.875,3.625s-0.75,2.25-2.75,3S358.532,379.895,358.032,379.77z"/>
	<path opacity="0.5" fill="#F9F4A6" stroke="#010101" stroke-miterlimit="10" enable-background="new    " d="M373.532,355.52
		c0-1-2.375-2-2.5-1.125s-0.125,1.75,1,1.875S373.532,355.52,373.532,355.52z"/>
	<path opacity="0.5" fill="#F9F4A6" stroke="#010101" stroke-miterlimit="10" enable-background="new    " d="M355.032,357.395
		c0.375-0.75,2.625-2.875,1.75-3.625s-5.875-6-6.75-4.875s-1.25,4-0.375,5s2.125,1.75,2.75,2.375S355.032,357.395,355.032,357.395z"
		/>
	<path opacity="0.5" fill="#F9F4A6" stroke="#010101" stroke-miterlimit="10" enable-background="new    " d="M342.907,356.52
		c-0.53,0-1.125-2-2.375,0.125s-1.75,1.875-2.625,3.125s-1.375,1.875-0.375,2.625s0.75,1.5,2.125,0.375s3.25-3,3.5-3.875
		S343.532,356.52,342.907,356.52z"/>
	<path opacity="0.5" fill="#F9F4A6" stroke="#010101" stroke-miterlimit="10" enable-background="new    " d="M333.407,366.145
		l-0.75-2l-5.75-2.25C326.907,361.895,327.407,366.395,333.407,366.145z"/>
	<path opacity="0.5" fill="#F9F4A6" stroke="#010101" stroke-miterlimit="10" enable-background="new    " d="M317.032,348.395
		c0,0,1-2.25,1.5-2.875s-2.125-4.5-3.5-5.25s-2.75-1.125-3.375-0.125s0.375,3,1,4.125S317.032,348.395,317.032,348.395z"/>
	<path opacity="0.5" fill="#F9F4A6" stroke="#010101" stroke-miterlimit="10" enable-background="new    " d="M314.782,358.27
		c-0.875-0.125-1.125-1.25-1.75-0.625s0.25,1.5,0.75,1.875S315.657,358.395,314.782,358.27z"/>
	<path opacity="0.5" fill="#F9F4A6" stroke="#010101" stroke-miterlimit="10" enable-background="new    " d="M310.657,355.27
		c-0.303-0.417-2.625,0-2.625,0.375s1.25,3.125,1.25,3.125S311.657,356.645,310.657,355.27z"/>
	<path opacity="0.5" fill="#F9F4A6" stroke="#010101" stroke-miterlimit="10" enable-background="new    " d="M308.657,359.895
		c-1.118-0.559-1.75-2.625-2.875-2.125s-2,0-3,1s-1.875,2.125-0.5,2.75s2.125,0.875,3.125,2s0.5,1.125,1.875,1.75
		s1.875,1.125,2.25-0.75S309.657,360.395,308.657,359.895z"/>
	<path opacity="0.5" fill="#F9F4A6" stroke="#010101" stroke-miterlimit="10" enable-background="new    " d="M302.907,366.395
		c0-1.118-2.25-3.125-2.875-3.125s-2.25,1.125-2.5,2s-0.625,2.25-0.25,3s2.125,1.625,2.75,1S302.907,367.395,302.907,366.395z"/>
	<path opacity="0.5" fill="#F9F4A6" stroke="#010101" stroke-miterlimit="10" enable-background="new    " d="M292.282,362.77
		c0.875-0.5,2.25-1.75,2.25-2.375s-2-1.125-3-0.875s-1.25,0.75-1,1.75S292.282,362.77,292.282,362.77z"/>
	<path opacity="0.5" fill="#F9F4A6" stroke="#010101" stroke-miterlimit="10" enable-background="new    " d="M271.782,361.395
		l0.875-0.125L271.782,361.395z"/>
	<path opacity="0.5" fill="#F9F4A6" stroke="#010101" stroke-miterlimit="10" enable-background="new    " d="M247.282,359.27
		l1.625,1L247.282,359.27z"/>
	<path opacity="0.5" fill="#F9F4A6" stroke="#010101" stroke-miterlimit="10" enable-background="new    " d="M298.032,336.145
		c0,0,3.875,0,4.5,0s1.875-1.5,1.875-3.625s1-3.25-1.625-3.25s-4.875,1.125-5.5,2.5S296.532,336.02,298.032,336.145z"/>
	<path opacity="0.5" fill="#F9F4A6" stroke="#010101" stroke-miterlimit="10" enable-background="new    " d="M330.532,339.77
		c0,0,11.875-16.25,12.75-15.875s1,1,1.25,2.625s0.75,1.5,0.75,3.125s-0.75,5.375-2,6.125s-2.5,1.25-4,1.25
		s-2.125,0.625-2.375,1.875s-0.625,3-1.5,3.375s-2,0.875-2.75,0S330.532,339.77,330.532,339.77z"/>
	<path opacity="0.5" fill="#F9F4A6" stroke="#010101" stroke-miterlimit="10" enable-background="new    " d="M358.782,343.52
		l-2.125-2.875c0,0-2.75,2.375-2.125,3.125s2.125,1.375,3,0.625S358.782,343.52,358.782,343.52z"/>
	<path opacity="0.5" fill="#F9F4A6" stroke="#010101" stroke-miterlimit="10" enable-background="new    " d="M357.657,337.895
		c0.375-0.375,4.625-3.125,4.75-3.5s0-7.375,0-8.625s-0.125-3.25-0.875-3.875s-2.375-1.625-3.625-1.125s-3.125,1.5-4.25,2.375
		s-4,2.75-4.375,3.625s0.125,2.125,1.25,3.625s2.375,2.875,3,4.25s-0.25,2,1.25,2.5S357.657,337.895,357.657,337.895z"/>
	<path opacity="0.5" fill="#F9F4A6" stroke="#010101" stroke-miterlimit="10" enable-background="new    " d="M359.782,341.27
		l5.75-6.25c0,0-0.125,1.75-0.5,2.25s-2.5,5.75-2.625,6.75S362.032,345.77,359.782,341.27z"/>
	<path opacity="0.5" fill="#F9F4A6" stroke="#010101" stroke-miterlimit="10" enable-background="new    " d="M367.782,340.395
		l-1.5-2c0,0,2.375-2.375,3-1.75s1.625,0.875,1,1.625S367.782,340.395,367.782,340.395z"/>
	<path opacity="0.5" fill="#F9F4A6" stroke="#010101" stroke-miterlimit="10" enable-background="new    " d="M369.907,341.395
		l-0.875,1.625c0,0,2.125,0.875,2.125,0S370.407,341.645,369.907,341.395z"/>
	<path opacity="0.5" fill="#F9F4A6" stroke="#010101" stroke-miterlimit="10" enable-background="new    " d="M375.032,342.395
		c0,0-0.5,1.125,0.25,1.875s1.5,0.625,1.75,0.125s1.125-1.125,2.125-1.625s2.75-1.75,3.125-2.375s3-2.875,4.625-3.625
		s3.375-2.25,4.75-2.875s1.75-1.625,0.75-1.75s-3.75-1.75-3.75-1.75s-0.5,1.5-0.875,1.875s-3.875,3.125-4.875,3.125
		s-1.625,1-1.75,2.25s-1.125,2.625-2.25,3.375S375.032,342.395,375.032,342.395z"/>
	<path opacity="0.5" fill="#F9F4A6" stroke="#010101" stroke-miterlimit="10" enable-background="new    " d="M396.907,324.895
		c0,0,7,0.75,8.25-0.375s4.75-3.375,6.25-3.875s0.375-2.625-1.125-1.875s-6.125,3.875-7.875,4.25S397.657,325.02,396.907,324.895z"
		/>
	<path opacity="0.5" fill="#F9F4A6" stroke="#010101" stroke-miterlimit="10" enable-background="new    " d="M376.657,320.895
		c-0.625-0.875-1.75-2.25-1.75-2.25s-2.625,3-1.75,4s2.625,2.125,2.875,1.125S376.657,320.895,376.657,320.895z"/>
	<path opacity="0.5" fill="#F9F4A6" stroke="#010101" stroke-miterlimit="10" enable-background="new    " d="M369.657,328.145
		l0.75-2.875c0,0-1.875-2.5-2.25-1.5s0.625,2.75,1,3.875S369.657,328.145,369.657,328.145z"/>
	<path opacity="0.5" fill="#F9F4A6" stroke="#010101" stroke-miterlimit="10" enable-background="new    " d="M378.157,312.895h1.25
		H378.157z"/>
	<path opacity="0.5" fill="#F9F4A6" stroke="#010101" stroke-miterlimit="10" enable-background="new    " d="M357.407,303.52
		l-1.375,0.875L357.407,303.52z"/>
	<path opacity="0.5" fill="#F9F4A6" stroke="#010101" stroke-miterlimit="10" enable-background="new    " d="M350.782,300.27
		c-0.625-0.5-1.625-1.25-3.125-1.375s-2,0.125-2.625,1.875s-1.625,4-1.625,5s-0.125,1.5,1.125,0.875s2.375-0.875,4.125-2.125
		S351.407,300.77,350.782,300.27z"/>
	<path opacity="0.5" fill="#F9F4A6" stroke="#010101" stroke-miterlimit="10" enable-background="new    " d="M339.657,307.52
		c-0.875-0.25-2.25-0.125-2.125,0.25s-0.25,1.375,0.75,2.625s2,0.875,2.125-0.125S339.657,307.52,339.657,307.52z"/>
	<path opacity="0.5" fill="#F9F4A6" stroke="#010101" stroke-miterlimit="10" enable-background="new    " d="M321.157,313.645
		l-2.5-1.375c0,0,0.125-5.625,0.375-6.5s1.5-0.125,2.875,0.5s3,1.75,3,2.875S321.782,313.27,321.157,313.645z"/>
	<path opacity="0.5" fill="#F9F4A6" stroke="#010101" stroke-miterlimit="10" enable-background="new    " d="M309.907,301.645
		c0,0-2.75-3.125-3.5-3.125s-2.625,1.5-2.25,2.125S306.907,301.77,309.907,301.645z"/>
	<path opacity="0.5" fill="#F9F4A6" stroke="#010101" stroke-miterlimit="10" enable-background="new    " d="M296.157,314.145
		c0-0.625-0.5-5-1.625-3.125s-2.5,2.25-2.75,3s-1.375,1.5-0.5,2.5s1.875,2.125,1.875,3.125s0,3.75,0,4.375s1.875,0.125,2.75-0.375
		s2-0.75,2-2.625s0.25-4.75-0.625-5.75S296.157,314.895,296.157,314.145z"/>
	<path opacity="0.5" fill="#F9F4A6" stroke="#010101" stroke-miterlimit="10" enable-background="new    " d="M300.657,323.77
		l1.625-1.375L300.657,323.77z"/>
	<path opacity="0.5" fill="#F9F4A6" stroke="#010101" stroke-miterlimit="10" enable-background="new    " d="M305.282,326.77
		l1.625-1L305.282,326.77z"/>
	<path opacity="0.5" fill="#F9F4A6" stroke="#010101" stroke-miterlimit="10" enable-background="new    " d="M400.157,355.895
		c0-1.581-2.25-0.875-2.375-0.5s0.5,2.5,0.5,2.5S400.157,357.395,400.157,355.895z"/>
	<path opacity="0.5" fill="#F9F4A6" stroke="#010101" stroke-miterlimit="10" enable-background="new    " d="M445.449,391.02
		l-0.833,2.5L445.449,391.02z"/>
	<path opacity="0.5" fill="#F9F4A6" stroke="#010101" stroke-miterlimit="10" enable-background="new    " d="M406.782,355.353
		c-0.5-1.167-2.333-2.333-2.333-2.333s0.167-0.833,1.167-1.5s2.667-1,2.667-1s1.667-0.5,1.667-1.833s-0.167-2.333,1.167-2.333
		c1.333,0,2-0.833,3.333,0s1.833,2.5,2.167,3.5c0.333,1,2.333,2.667,0.333,3s-2.833-0.667-4.667,1c-1.833,1.667-3.167,2-3.833,2.333
		C407.782,356.52,406.782,355.353,406.782,355.353z"/>
	<path opacity="0.5" fill="#F9F4A6" stroke="#010101" stroke-miterlimit="10" enable-background="new    " d="M429.782,363.353
		l2,1.333L429.782,363.353z"/>
	<path opacity="0.5" fill="#F9F4A6" stroke="#010101" stroke-miterlimit="10" enable-background="new    " d="M434.949,364.353
		l1.333,2L434.949,364.353z"/>
	<path opacity="0.5" fill="#F9F4A6" stroke="#010101" stroke-miterlimit="10" enable-background="new    " d="M461.114,422.687
		c0.354-1.061-2.833-1.667-4.5-1.667s-3-0.5-3.167,1.167s-0.5,4.833-0.167,5.5s1.5,0.667,2.667,0.333
		C457.114,427.687,460.949,423.187,461.114,422.687z"/>
	<path opacity="0.5" fill="#F9F4A6" stroke="#010101" stroke-miterlimit="10" enable-background="new    " d="M467.782,419.687
		c0,0-1-0.167-1.167-1.5s-0.833-2-2-4.333s-2.333-4.333-2.333-4.833s0.667,0.333,1.167-2.833c0.5-3.167,0.5-5.833,0.667-8
		s0.833-4.667,1-6.667s-0.333-4.667,1.5-5s1.667,1.167,2.167,2.5s1,1.5,0.833,4s1,1.667-0.167,3.667s-2.333,3.167-2.667,5
		c-0.333,1.833-1.167,2.833,0.167,4.333c1.333,1.5,1.667,1.667,2.833,3.333c1.167,1.667,1.833,1,2.167,3.167
		c0.333,2.167,0.833,3.167,0,4.167s-1.167,2-1.833,2.167C469.449,419.02,468.115,420.02,467.782,419.687z"/>
	<path opacity="0.5" fill="#F9F4A6" stroke="#010101" stroke-miterlimit="10" enable-background="new    " d="M473.449,352.02
		c0,0-1.5-2.167-2.333-1.667s-2.333,1.333-1.5,1.667C470.449,352.353,472.782,353.02,473.449,352.02z"/>
	<path opacity="0.5" fill="#F9F4A6" stroke="#010101" stroke-miterlimit="10" enable-background="new    " d="M494.449,332.187
		c-0.286-1.143-3-4.167-3.5-4.667s-0.667-1.167-1.167,0.667c-0.5,1.833-2,3.5-2,4.833s-1,2.667,1.167,2.667
		C491.115,335.687,494.615,332.853,494.449,332.187z"/>
	<path opacity="0.5" fill="#F9F4A6" stroke="#010101" stroke-miterlimit="10" enable-background="new    " d="M488.449,357.52
		c0.5-1,1.833-3,1.833-3l-4.167,1.667L488.449,357.52z"/>
	<path opacity="0.5" fill="#F9F4A6" stroke="#010101" stroke-miterlimit="10" enable-background="new    " d="M484.782,358.353
		c-0.833-0.5-4.667-0.833-5,0.5s0.5,3.667,1.5,3.667S484.782,358.353,484.782,358.353z"/>
	<path opacity="0.5" fill="#F9F4A6" stroke="#010101" stroke-miterlimit="10" enable-background="new    " d="M489.449,364.187
		c0.333-1.167,2.833-3.5,4-5.167s3.333-5.5,4.667-7.333c1.333-1.833,2.5-4.167,4.5-5.333c2-1.167,0.833-1.167,3.333-3.333
		s2.5-3,4.667-4.667c2.167-1.667,4-2.5,4.333-1s0.167,2.667,0,4.667s0,3.833-0.667,6.333s-2.167,6-2.667,8.5
		c-0.5,2.5-2.167,2.667-1.333,3.833c0.833,1.167,3,1.5,1.167,2.5c-1.833,1-1.833,0.667-3.5,2.667s-2.333,1.5-4.167,3.5
		s-2.333,3.167-2.833,6.5s-0.833,5.167-2.167,5.167s-3.833-0.333-3.667-3.167c0.167-2.833,0.833-7.667,0.333-8.833
		s-0.667-3.333-2.167-2.833s-4.333,1.5-4.167-0.5C489.282,363.687,489.449,364.187,489.449,364.187z"/>
	<path opacity="0.5" fill="#F9F4A6" stroke="#010101" stroke-miterlimit="10" enable-background="new    " d="M469.282,349.187
		c-0.538-0.269-3-2.833-3.833-2.833s-1.333,0.5-1.333,1s-0.833,2.167,0,3s1.833,1.667,2.667,1.667S469.615,349.353,469.282,349.187z
		"/>
	<path opacity="0.5" fill="#F9F4A6" stroke="#010101" stroke-miterlimit="10" enable-background="new    " d="M456.282,340.353
		c0.582-1.746-0.667-3.167-2.167-1.833s-2.5,1.667-2.833,2.333c-0.333,0.667,1.167,1,2.333,1.167
		C454.782,342.187,456.114,340.853,456.282,340.353z"/>
	<polygon opacity="0.5" fill="none" stroke="#010101" stroke-miterlimit="10" enable-background="new    " points="451.949,336.02 
		450.782,336.853 450.782,338.02 	"/>
	<path opacity="0.5" fill="#F9F4A6" stroke="#010101" stroke-miterlimit="10" enable-background="new    " d="M498.449,316.853
		c-0.833-1.667-7.167-1.167-9.333-0.167c-2.167,1-4,2-5.5,2.667s-3.667,0.667-4.833,0.333c-1.167-0.333-3,0.833-3.667,2
		s-0.333,1.833-2.833,2.833s-4.833,2-5.667,3c-0.833,1-2.667,3.833-0.833,4.333s0.167,2.5,4,0s3.5-3,7-3s3.833-1.667,4.167-3.5
		c0.333-1.833,0.833-4.167,3.167-3.667c2.333,0.5,9.833-3.333,11.667-3.167S498.949,317.853,498.449,316.853z"/>
	<path opacity="0.5" fill="#F9F4A6" stroke="#010101" stroke-miterlimit="10" enable-background="new    " d="M456.449,323.52
		c1.557-0.908,2.167-1.167,3.667-2.667s2.333-2.333,0.333-2.333s-1.667-1.167-4.667-0.833c-3,0.333-3.833,1.833-4.833,3
		s-1,1.167-2.667,3.667s-3.333,3.667-4.667,5.167c-1.333,1.5-1.5,0.833-2.667,1s-3.333-0.333-2.333,1.667s2.833,3.5,3.667,4.667
		c0.833,1.167,0.833,1.5,0.833-1.5s0-4.167,2.333-4.167s3.833,0.833,5-1.5C451.614,327.353,454.449,324.687,456.449,323.52z"/>
	<path opacity="0.5" fill="#F9F4A6" stroke="#010101" stroke-miterlimit="10" enable-background="new    " d="M439.782,319.687
		c-0.167,0.667-1.833,3.5-2.333,4s-1.333,1.667-1.333-0.5s-1-5.5-1.5-7.167s-3.5-4.333-4.833-5s-4.5-2.833-5.167-3.833
		s-1.333-1.167-0.333-3s2-2.667,3-2.333c1,0.333,3,2.5,4.333,3.833s0,2.5,3.167,3.667s3.5,2.5,5.167,3s1.833,2.833,2.833,3
		s2.167,0.833,3.833,0.833c1.667,0,4.333,0.5,4.333,0.5s-0.333,1.167-2.333,1.667s-3.833,0.333-5.667,0.167
		C441.114,318.353,439.782,319.687,439.782,319.687z"/>
	<path opacity="0.5" fill="#F9F4A6" stroke="#010101" stroke-miterlimit="10" enable-background="new    " d="M413.949,296.687
		c-0.587-1.468-1-3-2-2s-2.5,1.667-2.5,3.167s1.167,2.833,1.833,3.833s1.5,0.833,1.667-0.167
		C413.114,300.52,414.614,298.353,413.949,296.687z"/>
	<path opacity="0.5" fill="#F9F4A6" stroke="#010101" stroke-miterlimit="10" enable-background="new    " d="M421.949,295.353
		c1-0.333,2.5-1.833,2-2.167c-0.5-0.333-4.667-3.167-4.667-3.167s-0.833,1.167-0.667,2c0.167,0.833,0.833,1.5,1.5,3.5s0.5,4,1,4.333
		s0.833,1,1.833,0.5s2.167-2.667,2.167-3.167s-3.167-0.833-3.167-0.833L421.949,295.353L421.949,295.353z"/>
	<path opacity="0.5" fill="#F9F4A6" stroke="#010101" stroke-miterlimit="10" enable-background="new    " d="M407.114,284.853
		c0-1,0-1.333,0-4s0-3.667-1.167-4s-1.333-0.167-2.667,1.167s-3.167,3.833-3.5,4.5s0.167,2,0.833,2.5c0.667,0.5,3,0.5,3.667,0.5
		s0.833,0.167,1.667,1.5c0.833,1.333,1.333,1.333,1.333,0.667C407.282,287.02,407.114,284.853,407.114,284.853z"/>
	<path opacity="0.5" fill="#F9F4A6" stroke="#010101" stroke-miterlimit="10" enable-background="new    " d="M401.949,286.52l-1,1
		L401.949,286.52z"/>
	<path opacity="0.5" fill="#F9F4A6" stroke="#010101" stroke-miterlimit="10" enable-background="new    " d="M409.282,285.52
		l-0.667,1.167L409.282,285.52z"/>
	<path opacity="0.5" fill="#F9F4A6" stroke="#010101" stroke-miterlimit="10" enable-background="new    " d="M394.282,282.687
		c0.589-0.589,1.333-4.333,1.333-5.833s0.5-3.833-2-0.667c-2.5,3.167-2.667,3.833-4.5,4.833s-2.667,0.667-4.667,1.333
		c-2,0.667-3,2.333-4.5,4.5s-3.833,3.333-2.333,4.5s2.833,1,4.167,0S393.949,283.02,394.282,282.687z"/>
	<path opacity="0.5" fill="#F9F4A6" stroke="#010101" stroke-miterlimit="10" enable-background="new    " d="M414.782,272.853
		c2.131-1.776,2.333-1,4.167-0.333c1.833,0.667,1.667,2.833,3.833,2.5s4-1.833,5.333-2.833s4.833-3.833,5.167-4.833s1-4,1-5
		s-1-3-1.833-1.667s-1.5,3.167-3.333,4.5s-0.333,0.833-2.167,0.333c-1.833-0.5-2.333-0.333-4.667-0.667
		c-2.333-0.333-3.167-1.667-5.167-1.667s-4-2.5-5.667,0.5s-4,7.167-4,8.333s-0.5,2.333,1.333,2.5
		C410.614,274.687,412.782,274.52,414.782,272.853z"/>
	<path opacity="0.5" fill="#F9F4A6" stroke="#010101" stroke-miterlimit="10" enable-background="new    " d="M407.114,293.353
		v0.833V293.353z"/>
	<path opacity="0.5" fill="#F9F4A6" stroke="#010101" stroke-miterlimit="10" enable-background="new    " d="M337.614,295.687
		c-0.833-2.833,0.167-2.5-2.167-2.5c-2.333,0-3.833,0.333-6,0.333s-3.5,0.667-4.667-0.5s-2.167-1.167-2.167-0.5s-1,1.167,0.5,2.5
		s2.667,2.667,4.167,3.667s4,1.333,5.333,1.333s3.167,0,4.167-1.167C337.782,297.687,337.614,295.687,337.614,295.687z"/>
	<path opacity="0.5" fill="#F9F4A6" stroke="#010101" stroke-miterlimit="10" enable-background="new    " d="M320.282,292.52
		c0,0-0.167-6.5-0.833-7.5c-0.667-1-1.167-4.667-1.667-6.167s-2.667-1.833-3.667-1.667c-1,0.167-2.667,2.167-3.833,0.5
		c-1.167-1.667-1-4-2.167-5.167s-2.333-0.333-3.5,0.833c-1.167,1.167-3,3.333-2.167,4s1.5,3,3.167,4.167
		C307.282,282.687,320.114,290.353,320.282,292.52z"/>
	<path opacity="0.5" fill="#F9F4A6" stroke="#010101" stroke-miterlimit="10" enable-background="new    " d="M287.614,309.02
		l2.5-3.167c0,0,1.333-1.167,1.333-2.667s-1.333-4.667-2.167-4.833c-0.833-0.167-1.833,0.5-3,0.833s-3.167,1.333-3.167,2.833
		S283.114,305.687,287.614,309.02z"/>
	<path opacity="0.5" fill="#F9F4A6" stroke="#010101" stroke-miterlimit="10" enable-background="new    " d="M267.949,319.853
		l-1-3.667h-2.833C264.114,316.187,266.949,320.187,267.949,319.853z"/>
	<path opacity="0.5" fill="#F9F4A6" stroke="#010101" stroke-miterlimit="10" enable-background="new    " d="M274.282,303.187
		c-0.279-0.975,0.833-3.167,0.833-4.333c0-1.167-1.667-4.333,0.167-3.833s2.333,0.833,2.167,2.333c-0.167,1.5-0.667,3.167-1.167,4.5
		S274.614,304.353,274.282,303.187z"/>
	<path opacity="0.5" fill="#F9F4A6" stroke="#010101" stroke-miterlimit="10" enable-background="new    " d="M277.782,280.187
		l1-4.667c0,0,1.667,2.667,1.833,3.667C280.782,280.187,277.782,280.187,277.782,280.187z"/>
	<path opacity="0.5" fill="#F9F4A6" stroke="#010101" stroke-miterlimit="10" enable-background="new    " d="M272.614,270.02
		c0,0-2.333-4.667-2.5-3.667s-1.333,2.833-0.167,3.5C271.114,270.52,272.614,271.187,272.614,270.02z"/>
	<path opacity="0.5" fill="#F9F4A6" stroke="#010101" stroke-miterlimit="10" enable-background="new    " d="M268.614,265.02
		c-1.5-0.167-3.167,1.167-2.333,1.333c0.833,0.167,2.333,0.667,2.333,0.667V265.02z"/>
	<path opacity="0.5" fill="#F9F4A6" stroke="#010101" stroke-miterlimit="10" enable-background="new    " d="M371.657,249.395
		c0.5-0.875,2-2.25,2.875-3.375s1.875-2.25,2.25-4.75s0.375-6.125-0.5-8.125s-2.25-5.625-2.125-6.875s0.125-4,1.125-4
		s2.75,0.5,4.25,0.625s3.75,0.875,2.75-0.125s-4-3.875-7.25-3.5s-5.875,0.125-8.375-0.375s-5.25-2.125-7.25,0.375s-3.625,4-2,6.625
		s2,3.25,3.5,3.5s3.75,1.625,5,2.375s1.875,2.375,2,4.125s0.75,1.875-0.625,3.375s-3,1.625-3.25,3.625s-0.125,2.125,1.375,3.25
		s4.125,3.875,5,4S371.657,249.395,371.657,249.395z"/>
	<path opacity="0.5" fill="#F9F4A6" stroke="#010101" stroke-miterlimit="10" enable-background="new    " d="M345.157,226.02
		c0-2.375-0.625-3.75-2-3.25s-2.125,1.5-2.625,2.625s-1.625,2.875-1.625,2.875s3.375,0.375,4.375,0.375
		S345.157,227.645,345.157,226.02z"/>
	<path opacity="0.5" fill="#F9F4A6" stroke="#010101" stroke-miterlimit="10" enable-background="new    " d="M392.282,182.77
		c0.201-2.508-2.125-3.75-3.25-4.75s-3.875-2.625-5.375-4.5s-3.5-1.875-4.625-3.375s-3.125-0.75-2.25-3.375s0-4-2-4
		s-5.375-0.375-7.125-0.25s-1.75,0.875-1.75,2.25s-1,3.125-2.25,3.875s-6.375,3.75-8,4.25s-6.75,1.875-7,3.125
		s1.125,5.375,1.375,6.125s2.25,1.5,3.25,1.875s4.125,0.375,5.5,0.5s3.5,0.875,4.5,0.25s1.375-1.5,1.375-3.5s-0.625-2.25,0.25-3
		s3.625-3.125,5-3.5s5-1.5,3.375,0.75s-1.75,2.75-3.375,4.25s-4.875,5.375-4.875,5.375s0.375,0.25,1.375,1s3.625,3.125,6.75,3.125
		s5.25,0.25,7,0.25s4-0.375,6.25-0.625s4.75-1.125,3.375-1.625s-3-1.625-4.125-3.125s-4.125-3.625-3.25-4.5s1.875-1.375,3.375-0.25
		s1.875,2.5,3.5,4S392.032,185.895,392.282,182.77z"/>
	<path opacity="0.5" fill="#F9F4A6" stroke="#010101" stroke-miterlimit="10" enable-background="new    " d="M388.657,158.895
		l-3.75,4.125c0,0,1.625,0.875,2.375,1s2.125-0.625,2.125-1.75S388.657,158.895,388.657,158.895z"/>
	<path opacity="0.5" fill="#F9F4A6" stroke="#010101" stroke-miterlimit="10" enable-background="new    " d="M300.657,172.27
		l3-4.25c0,0-0.125-2.75-0.875-3.375s-2.125-0.875-2.75-0.125s-2,1.375-2,2S301.032,171.52,300.657,172.27z"/>
	<path opacity="0.5" fill="#F9F4A6" stroke="#010101" stroke-miterlimit="10" enable-background="new    " d="M306.907,145.145
		c-0.172-0.858-1.875-0.5-2,0.75s0.875,1.875,1.125,1.25S307.157,146.395,306.907,145.145z"/>
	<path opacity="0.5" fill="#F9F4A6" stroke="#010101" stroke-miterlimit="10" enable-background="new    " d="M350.407,137.02
		c1.933-0.276,1.375-2.375,1.375-2.375s-3.25,0.625-3.375,1S347.782,137.395,350.407,137.02z"/>
	<path opacity="0.5" fill="#F9F4A6" stroke="#010101" stroke-miterlimit="10" enable-background="new    " d="M316.157,142.145
		c-0.412-0.309-0.75-2.125-0.625-4.125s0.625-3,1.5-5.125s2.375-4.625,0.875-4s-2.375,0-3.125,0.375s-0.625,2-1.75,3.625
		c0,0-0.5,2-2.5,2.125s-4.875-0.75-6.125-1.375s-3-1-4-0.375s-3.5,2.625-3.5,2.625s0.375,0.375,1.125,1.75s1.25,1.625,1.25,3.375
		s-1.125,4,0.375,4.25s3-0.375,4-0.75s2.875-1.875,3.625-2.375s0.25-2.875,1.75-3.125s1.625-0.375,2,1.625s0.625,3.625,1.25,5.125
		s0.75,3,2,1.875s1.5-0.75,1.75-2.375S316.657,142.52,316.157,142.145z"/>
	<path opacity="0.5" fill="#F9F4A6" stroke="#010101" stroke-miterlimit="10" enable-background="new    " d="M288.032,215.77
		c-0.134-1.34-1.75-3.625-2.75-4.25s-2.75-1.375-3.875-1.625s-2.25-0.75-2.625,0.375s-2.25,2.875-1.625,3.875s1.125,2.25,2.375,2.25
		s4.5,0.875,5.5,1.75s0.625,2,1.125,3s0.5,3,1.625,3.25s3.375,0.25,4-0.25s1.75-1.5,1.75-3.375s-0.25-3.25-2.25-3.25
		S288.157,217.02,288.032,215.77z"/>
	<path opacity="0.5" fill="#F9F4A6" stroke="#010101" stroke-miterlimit="10" enable-background="new    " d="M257.032,210.645
		c0,0,2.625-2.875,3.25-3.875s1.75-1.625,0.625-2.25s-1.75-0.5-2.625,0.75s-2.375,2.875-2.25,3.5S257.032,210.645,257.032,210.645z"
		/>
	<path opacity="0.5" fill="#F9F4A6" stroke="#010101" stroke-miterlimit="10" enable-background="new    " d="M247.407,202.645
		l-2.5-1c0,0,0.875-5.125,2.625-5.5s3.875-1.125,3.875,0.625S249.407,202.395,247.407,202.645z"/>
	<path opacity="0.5" fill="#F9F4A6" stroke="#010101" stroke-miterlimit="10" enable-background="new    " d="M241.282,207.77
		c0,0-6.25-2.75-7.375-3.5s-3.25-0.75-3.25-0.25s0,1.75,0.5,2.625s0.625,1.125,1.375,2s1.625,1.75,2.75,1.875
		S241.157,208.645,241.282,207.77z"/>
	<path opacity="0.5" fill="#F9F4A6" stroke="#010101" stroke-miterlimit="10" enable-background="new    " d="M252.782,191.645
		c0,0,1.75-2.25,1.75-2.75s-0.25-2.375-0.625-2.5s-1.125,0.875-1.125,1.75S252.907,191.145,252.782,191.645z"/>
	<path opacity="0.5" fill="#F9F4A6" stroke="#010101" stroke-miterlimit="10" enable-background="new    " d="M259.407,184.27
		c0,0-1.25-2.625-1.5-1.875s-0.625,1.5-0.25,2S259.282,185.02,259.407,184.27z"/>
	<path opacity="0.5" fill="#F9F4A6" stroke="#010101" stroke-miterlimit="10" enable-background="new    " d="M258.282,177.895
		h-1.125H258.282z"/>
	<path opacity="0.5" fill="#F9F4A6" stroke="#010101" stroke-miterlimit="10" enable-background="new    " d="M267.282,186.27v0.75
		V186.27z"/>
	<path opacity="0.5" fill="#F9F4A6" stroke="#010101" stroke-miterlimit="10" enable-background="new    " d="M225.657,205.52
		c-0.125-1.125-0.375-2.875-1.375-2.125s-2.625,2.375-2.75,3.375s-0.75,1.75,0.5,2.5s2,0.75,2.625-0.5
		S225.657,205.52,225.657,205.52z"/>
	<path opacity="0.5" fill="#F9F4A6" stroke="#010101" stroke-miterlimit="10" enable-background="new    " d="M192.657,235.77
		c-0.116-1.393,2.625-3.375,3.75-4.375s4.625-3.125,5.5-3.75s3.25-2.75,3.75-3.5s2.875-2.75,4.5-3.5s4.75-3.375,5.875-3.375
		s3.375,0.375,4,1.125s1.5,1.625,2.125,2.75s1.375,2.125,2.5,3.875s1.75,3,3,3.875s1.5,1.5,3.125,2.375s2.875,2.125,4,2.375
		s2.625-0.125,3.75-0.625s3-0.625,3.75-0.25s3.5,2.125,4.125,2.625s5.125,1.375,6.125,1.375s2.75-1,4.125-1.375
		s3.25-0.875,4.625-0.875s2.375-0.75,3.875,0.25s3.25,0.875,2.25,2s-1.75,1.625-1.625,3.125s0.375,1.5,1.875,1.875s3.75,0.375,4,1.5
		s-0.75,1.375-1,3.625s-1.125,5,0.5,6.125s0.875,1.375,2.125,3s0.625,2,1.625,2.75s1.25,0.5,2.125,1.75s0.25,1.875,1.25,2.75
		s1,1.125,2.75,1.875s2.625,1.25,4.875,1.25s5-0.375,6.125-0.875s1.25-0.5,2.75-0.75s1.625,0.25,1.375,1.5s-0.5,3.25-0.25,4.25
		s0.25,4.375-0.375,5.75s-3.375,3.375-3.75,3.375s-1.625-2.625-2.75-2.625s-3.25-1.125-2.375,0.625s1.125,3-0.125,2
		s-1.375-1.75-2.875-2.375s-1.75-0.625-2.25-2.25s-1.375-2.5-2.75-2.625s-3.875,0.375-4.25-0.75s1.5-2.75,1-4.375
		s-2.25-1.75-3.25-2.125s-1.875-0.125-2.125-1.75s-1-1.25-1-1.25s-0.125-2-1.125-2.75s-3.125-0.25-3.875-0.25s-0.75,0.375-0.75-2.25
		s-0.5-2.75-2.125-2.5s-3.5,1-5.125,1s-5.75,0-6.875,0.5s-3.5-0.125-4.375,0.625s-2.125,1.75-2.875,0.625s-2.75-2.625-2.75-2.125
		s1.125,2.125,1.875,3s1.75,2.625,3.25,2.5s4.75-0.125,6-0.125s3.125,0.25,5.875,0.625s5.75,1.625,7.125,2.875
		s4.625,3.125,4.375,4.125s-3.75,4.375-3.75,5.5s0.25,2.75,1.125,3.875s1,1.625,0.875,4c0,0-0.375,1.375,0.375,2.625
		s0.875,1.125,1.125,3s0.625,2,1.5,2.625s1.5,0.75,1.75,2.25s0.375,0.875,1,2s0.375,2.625,0.125,3.875s-0.375,1.75,0.125,2.625
		s1.25,0.75,0.75,1.5s-1,1.375-2.375,1.75s-2.75,1.625-3.625,0.125s-2.125-2.875-2.875-3.875s-2.125-2.375-4.125-3
		s-5.375-0.875-5.875-2s-2-2.875-3.875-4.375s-4.75-1.875-5.5-1.875s-2.375-0.625-2-1.375s0.75-1.75,0-3.25s-0.75-2.5-2.375-1.25
		s-2.375,0.375-3.625,2s-1.375,2-2.625,3.125s-2.5,1.25-4.75,1.5s-4.75,1.25-6.5,2.375s-1.25,2-2.625,2.75s-2,0.625-3.875,0.875
		s-3.75-0.25-3.625,1.375s0.25,3,1.125,3.5s1,1.125,2.25,0.625s3-0.625,4,0s2.5,0.125,2.625,1s0.875,1.25-0.375,2
		s-3.125,1.375-2.75,2.125s2.125,1.125,2.5,1.25s1.125,0.875,1.625,1.875s0.75,2.375,0.75,4.125s0.75,1.875,1.625,2.625
		s3,2,4.375,2.375s3,0.875,4,0.375s2.25-1.125,3.125-0.25s4.25,3,6.125,3.375s3.75,0.375,2.875,1.625s-2,2.875-3.375,3.25
		s-2.625,0.625-4.125,0.625s-3.125,0.625-4,1.125s-2.375,1-2.625,1.875s-0.5,1.75-0.25,2.25s-1-0.25-1.5,0.625s-0.875,0.625-0.875,2
		s0.875,3.625-0.625,2.75s-3-0.25-3.625-1.625s-1.5-2.125-2.125-2.75s-1.75-1-1.125-2.125s1.25-0.375,2-1.5s1.875-2.75,0.25-2.875
		s-3.375-0.25-4.375-0.5s-1.25,0.25-1.875,0.5s-2.25-1.375-2.625-2.75s-1.375-2.125-2.25-1.625s-3.375,0.875-4.5,1.5
		s-3-0.625-3.375-1.25s0.125-1.875-1.5-2.25s-2.5-1.125-3,0s-0.75,1.75-0.125,3.125s1.125,2.25,1.625,3.625s0.875,3.25,1.5,4.375
		s1,3.125,2.25,4s3.375,3.25,4.125,4.125s3,3.625,3.5,4.875s0.375,4,0.75,5s1.5,3,2,3s0.625-0.5,1.375-0.75s1.25,0,1.625,0.75
		s0,1.75,0.75,3.5s2.375,6.75,4.375,8.75s2.875,4.125,3.25,4.875s1.625,4.375,1.25,5.125s-1.875-0.25-2.5,0.5s-0.875,2-0.875,3.25
		s0.5,2.25,1.125,3.125s1,1.75,2.625,2.75s3.75,3,4.25,3.375s0.5,0.5,1,1.875s1.625,2.125,2.375,3s2,1.625,2,2.25
		s-1.375,1.375-3,0.75s-4.375-0.625-5-1.875s-0.75-3.375-1.75-3.5s-3.5,1.125-4.25,1s-1.75-1.5-2.5-3.125s-2.375-3-3-3.25
		s-0.75-1.375-1.375-2.125s-2.875-1.125-3.625-0.875s-1-4.625-1-4.625s0.375-2.125-1.25-2.5s-2.75-0.5-4.5-0.375
		s-3.5,0.25-4.5,0.875s-1.875,1.625-2,2.75s1,1.5-0.25,2.375s-2.625,1.25-2.625,2.125s0.625,2.25,0.625,2.625
		s-1.25-1.125-1.125,0.625s1.5,1.75,0.875,2.625s-1.5-0.25-1.5,0.875s-0.625,3.5,0.375,4.875s0.875,3.625,1.375,5.125
		s0.625,2.875,0.25,3.875s-0.375,1.375-1.25-0.875s-1.375-2.5-3-2.375s-2.375,0.125-2.75,0.875s-1.125,0.25-1.125-2.5
		s-0.625-2.625,0-3.5s0.625-1.75,0.5-3.625s-0.875-1.25-1-2.75s-0.375-3.375-0.875-3.625s-0.25,1.125-1.25-0.75s-3-4.375-3.5-5.125
		s-2.5-3.375-3.25-4.625s-2.625-2.25-3.25-2.125s-1.375,0.125-2.125,0.5s-2.125-1.375-2-2.875s-0.25-5.125-0.625-5.625
		s-0.25-1.125-1.625,0.125s-3.625,2-4.5,2s-3.5,0.625-3.625,1.375s-0.75,2-0.75,3.5s0.375,5.125,0.75,6.25s1.25,3.625,2.125,4.125
		s1.75,0.625,0.25,1.25s-1.25,1.375-2,2.625s-1.75,3-2.125,2.75s-0.875-1.625-1.5-2.75s-1.25-2.125-2.375-2.25
		s-2.125-0.25-2.875,0.5s-1,1.25-1.75,0.375s-3-2.5-3.125-3.125s-0.875-2.75-0.5-3.625s1.375-2.5,0.875-2.75s-1.875-0.375-2.25-0.25
		s-1.75-1.875-1.75-1.875s0-1-1.625-2.25s-2.625-2-2.875-2.875s-0.5-0.125-0.625-3.125s-0.625-2.625-0.625-4.875
		s0.5-3.375,1.5-4.125s3.125-2.25,3.5-3.5s0.375-1.25,0.375-3.25s-0.75-4.375-1.25-5.25s-0.875-1.625-2.375-4s-0.875-1.625-2.625-3
		s-1.875,0.25-3.875-1.625s-1.875-1.75-4-3.25s-5.75-2.625-6.875-2.625s-2.25-0.25-2.25,0.25s-1,2.25-1.375,2.25
		s-0.125-0.75,0.125-2.625s-0.25-3.625-0.625-4.875s-1.5-3.125-2.375-3.625s-4.25-1-5-1.375s-2.5-0.75-3.25-1.125s-1.75-1.25-1.75-2
		s1-3.625,1-4s1.75,0.5,2.25,0.25s3.125-1.875,4.25-3.125s1.375-2.75,2.5-4.625s1.625-2.75,2.125-5.5s0.125-3,0-5.125
		s-2-3.375-0.125-2.75s3.625,0.375,4.875,0.5s1.25,0.25,2.875,0.75s2.625,0.625,4.625-0.125s3.875-1.375,5-2.25s1.5-1.75,2.25-3.25
		s0.75-1.625,2-3.75s1.125-2.375,3.375-3.25s5.125-1.375,6.5-1.25s2.625,0.25,4.125,1.5s0.75,1.125,2.75,1.625
		s1.25-0.125,3.25,1.375s2,1.875,4,2.125s3.25,0.625,5.125,1.125s3.875,0,5.625,0.5s3.75,1,5.625,1s4-0.125,5.5,0.375
		c0,0,1.375,0.375,2.625,1.125s4.125,2,5.125,2.75s5.25,3,6.625,3s3.75,0.625,4.625,0.875s2-0.75,1.875-1.75s-0.875-2.5-1.625-2.75
		s-2.5-0.875-3.5-1.375s-0.875-0.125,0.125-1.625s2.125-1.5,2.875-1.75s4.375,0.25,5.5,0s3.75-1.25,4.5-1.75s3-1,3.375-2.25
		s-0.25-2.5-0.875-2.5s0,0-0.375-1.125s-1.25-1-2.25-1.625s-1.875-1.5-2-0.625s-0.625,2.5-2.125,2.125s-2.5-1.25-3.625-1.875
		s-2.5-1-3.5-0.25s-2.25,0.75-3.625,0.375s-0.875-0.75-3-0.625s-2.875,1.625-3-0.75s-1.25-1.75-2.125-2.625s-2.125-1.875-2.875-2.75
		s-1.625-2.75-2.625-1.875s-1.625,2.125-2.5,4s-0.625,3.375-0.875,4s-1.375-1-1.75-2s-1.5-3-2.125-4s-1.625-2-2.625-2.5
		s-2-1.375-2.75-2s-1.625-0.5-1.625,0.25s0,3.75,0,5s-0.25,3.75-1.375,3.375s-3.375-0.75-4.625-1.25s-2-1-2.75-0.5
		s-0.375,2.375-1.875,2.5s-3-1.125-4.125-1.5s-2.125-0.875-3.625-0.875s-2-0.5-3.25,0.375s-1.75,0.25-3.125,1.5s-2,1.5-2.875,1
		s-2.125-0.875-3.5,0.5s-1,2.375-2.875,2.75s-3.875-0.125-5.625,0.5s-3.375,1.125-4.875,2s-3.875,3.375-4.5,2.5s-1-2.25-1.125-3.5
		s-0.875-1.25-2.125-1.5s-3.375-0.5-3.875-1.25s-1-3.875-1.625-4.375s-1.5-1.125-1.5-0.75s0.25,2.5,1,3.375s1.625,1.5,1.625,2.875
		s0,2.25-1.5,3.125s-3.125,2-3.875,2.25s-3.25,2.25-4.375,1.5s-3.375-1.75-3.25-3.375s1.375-3.75,0.75-5.25s-1.25-2.5-2.125-3.75
		s-0.75-2.25-1.625-1.375c0,0-0.125,2-1.25,1.75s-1.75-1.375-2.125-2.5s-0.625-3.875-1.125-5.5s-0.75-2.25-2.125-2.75
		s-2.375,0.75-3.5-0.875s-1.25-1.5-1.875-3.75s-0.25-3.25-2.125-2.25s-2.25,1.625-3.75,2s-2.5-0.125-2.75-2.75s0.5-2.75,1-3.5
		s0.5-2.5-0.375-3.5s-2.875-1.75-0.875-1.75s4.75,0.375,5.375,0.25s2-0.875,2.5-0.75s-0.375-0.625,0.75-1.125s1.75-1.25,3.5-0.75
		s2.625,1.375,3.75,2.25s0.75,1.25,1.875,0.125s1.125-1.625,2.5-1s4.375,3.75,3.125,1.375s-2.125-5.875-2.875-7.75
		s-1.875-3.75-3.25-2.625s-0.875,2.5-3,2.75s-2.875-0.375-4.375-1.125s-1.875-1.375-3.25-0.75s-2.25,0.25-3-0.875
		s-2.875-2.75-2.875-1.875s-0.875,4.125-1,5.25s0.625,2,1.75,2.375s3.375,0.875,2.125,1.375s-3.75,0.375-4.25,1.125
		s-2.25-0.125-2.25-2.5s-0.25-2.75-1-3.75s-0.625-1.25-1.75-1.625s-3.375-0.875-3.75-1.25s-3.5-2.625-4.25-3.875
		s-2.375-3.125-3.25-3.875c-0.875-0.75-1.75-2.125-3.625-2.125s-3.75,0.125-5.125-0.25s-2.375-3.25-3.25-4.625
		s-2.875-5.625-3.375-6.375s-2.125-1.125-0.625-1.625s2.125-0.875,1.75-1.625s-1.125-0.875-2.125-0.875s-3.875,1.125-4.25,0.125
		s0.625-4.5,0.75-5.125s1-1-0.625-2.375s0.625-0.167,1.792-2s1.333-2,2.5-3.167s1.5-4,1-5.167s-2.667-0.5-0.5-1.167
		s4.333,1.833,5.5-2.333c1.167-4.167-1.5-4.5-2.5-5.667s-3.167-5.167-2.333-5.833c0.833-0.667,2.833-5.833,3.167-6.5
		c0.333-0.667,3.5-0.667,4.833-0.667s-0.333,2.167,4.167-1.333s5-5.333,5.333-6.833s0.167-5.5,0.167-6.667s1.833-6,2-7.833
		s1.167-6.333,3.333-6.833c2.167-0.5,5.833-2.167,6.667-3.833c0.833-1.667,1.833-5.333,1.667-7.5c-0.167-2.167-1.5-6-2.833-7.667
		s-2.5-9.167-1.5-9.5s4-0.667,5.833-1s3.833-1.167,5.5-1s7.167-2.167,7.667-2.333c0.5-0.167,4-1.5,5.667-1.5
		s5.667,1.167,6.667,0.667s1.333-2.667,3-4s2.167-0.833,3.667-1.333s2.667-3.167,4.167-4.167s1.5-1.333,2.167-4.833
		s1.333-4.167,3.667-5.167c2.333-1,5.667-1.833,7-2s4.333-3.5,5.167-3.333s5,2,6.667,2s6.333-0.833,7.333-1.333
		s4.5-0.833,5.167-0.833s1-4.167,3-4s3.167,2.167,5,0.5s-1-2.5-0.833-5.667s-0.667-5.167,1.5-7.167s6.5-2.833,9-2.833s6,1.5,7.5,1
		s5.167-1.833,6-3.333s3.333-3.833,4.833-3.333s4.167-1.667,4.833-2s6.833-0.833,7.5-0.5s4.333-0.667,6-1.167
		s3.333-1.667,4.333-2.667s2.5-2.833,4.333-3.333s3,0.333,5.667-0.5s-0.333-4.833,4-6.833s5.5-0.667,6.667-2.5s3.667-0.167,4.667,0
		s2.667-1.167,5.167-2s6.5-1.5,7-0.333s3.167,3.833,3.833,4.833c0.667,1,2.333,0.833,4.333,1s3.5,0.667,4.667,1.667s3,0,5.167-1
		s7.333-0.833,9.667-0.167s6.5,2.5,8,3s5.833,3.333,7.167,3c1.333-0.333,2.833-1.5,5.833-3.167s4.833-3.333,7.5-4.167
		c2.667-0.833,6.167-0.333,8.5-1.667s8.667-2,10.333-2.5c1.667-0.5,6.833-3,8-6s0.333-4.833,0-9.667
		c-0.333-4.833-4.5-7.667-5.5-8.333s-4.167-1.167-1.333-4.667s4.333-3.5,6.667-3.667c2.333-0.167,7.667,0.333,7.667,0.333
		s-0.167,0.667,1.667,1.167s4.667,1.5,6.167,2s4.5,0.833,4.833,2.5s1.167,4.167,2.333,6.333c1.167,2.167,2.833,5.833,1.833,8.167
		c-1,2.333-2.667,2.833-4.833,5c-2.167,2.167-5.5,5-6.167,5.167s-2.833,5.167-2.167,6.333c0.667,1.167,3.667,5.333,4.167,7.167
		c0.5,1.833,1,6,0,8.667s-3.667,6-4.667,9.5s-2,6.667-3.333,7s-2.333,0.667-2.333,0.667s-1.958-0.542-1.333-2.792
		s-1.375-2.75-2.375-2.875s-3.125-1.625-4.5-0.875s-2.125,0.625-4.625,1.5s-6.375,2.125-7.875,1.875s-4.25-0.375-5.875-0.375
		s-6.375-0.25-8-1s-6.375-2.25-6.875-2s-0.25,1.75-1.375,1.75s-6.75,0.375-6.75,0.375s-1.25-4-2.375-3.375s-3.25,0.875-4,2.25
		s0.875,1.875-0.875,3.25s-4.375,1.5-5.25,3s-0.75,3.125-2.625,4.25s-5,1.875-6.75,2s-3.375-0.375-4.5-1.25s-2.5-2.875-3.25-3.375
		s-0.625-1.75-2-1.125s-2.375,0.375-4,1.625s-2.25,2.125-3.625,3.375s-1.25,2.125-1.375,3.5s0.375,2.75-0.75,4.125s-2,1.5-3.25,2.75
		s-1.375,2.125-3.5,3.25s-4.125,1.625-5.375,1.625s-4.125,0-5,0s-4.25-1.125-5.625-1.125s-4.375,0.875-5.125,1.875
		s-1.625,0.5-1.625,2s0.5,4.5,1.125,5s1.875,1,3,2s4,2.875,5.375,3.125s3,0.75,3.125,1.125s-1.25,1.25-2.375,1.75s-3,0.5-2.375,1.5
		s1,2.75,2.125,3.875s1.375,1.5,3.5,2.125s4.25,1,4.875,1.125s1.75,0,1.25-1s-2.25-3.125-1-3.125s1.875,0.875,2.75,1.625
		s1.125,0.875,3.125,1.125s3.75,0.5,4.375,1.625s1.5,1,2.75,1.625s1.75,1.125,2.625,2.125s2.125,2.5,3.25,2.625
		s3.25,1.75,3.75,2.375s2.125,1.875,1.125,3s-1.375,1.125-2.25,1.75s-2.375,1.625-3,0.625s-0.125-1.75-1.25-3s-2.375-1.375-3.375-2
		s-2.375-2.5-3-3.375s-1.25-1.25-2.875-1.25s-4.875,0.375-6-0.125s-3.5-1.25-4.875-2s-3.25-0.5-4.75,0.125s-2.125,0.875-3,0.875
		s-1.625-0.375-2.375,0.875s-1.375,1-1.625,3.125s1.25,3.5,1.875,4s2.25,1.875,3.375,2.125s3.25,0.625,4.125,0.875
		s4.25,1.125,5,1.875s2.875,1.625,3.5,2.875s1.75,1.5,1.75,3.625s0.875,2.625-0.25,3.75s-1.875,2.25-2.5,2.25
		s-2.75-0.625-3.625-1.125s-2.5-1.375-3.875-3.625s-3.125-4.5-3.75-5.25s-3.125-3.375-3.875-3.875s-1.5-1.875-2.875-1.625
		s-2.5,0.625-4.5,0.5s-3.75-0.75-5-1s-2.75-1.5-3.375-1s-3.75,2.25-3.25,3.75s0.875,3.875,2,4.75s2.25,2.625,3.25,3.375
		s1.5,2.625,2.125,3.375s2.5,1.625,3.875,2s2.875,0.25,5,0.5s3.625,0,4.375,0.625s0.875,2.125,1.75,2.125s2.125,1.125,1,1.375
		s-5.875,0.875-6.25,0.875s-4.5-0.625-5.375-1.125s-2.25-1-3.5-0.625s-3.375,1.125-3.875,1.125s-0.125-0.875-0.625-2.375
		s-0.875-1.75-1.75-2.875s-2-1.875-2.375-3s-0.25-3.75-0.375-4.875s0.5-4.25-1.125-4.625s-4.75-0.625-6.625-1s-5.875-1.5-6.875-1.75
		s-3.625-1.25-4.125-2.125s-2.25-1.75-3.875-1.375s-1.75-2-2.75-2.625s-2-1.5-2.75-2.625s-2.875-2.375-2.375-2.75
		s3.125-0.625,3.75-0.625s2.25-0.875,2.875-1.5s1.875-1.375,1.75-2.125s-1.625-1.25-2.125-2s-1.125-3.125-1.125-3.125
		s-0.75-1.25-1.625,0s-1.25,0.375-1.625,0.875s-0.875,1.125-1,2.125s-2.75,2.375-3.375,2.625s-0.875,1.25-1.25,2.125
		s-2.125,2-3,2.125s-2.125,0.625-2,1.75s0.75,1.25,0.25,1.875s-2.375-0.375-2.375,0.75s0.5,2.25,1,2.875s2.125,2.625,2.25,3.375
		s0.375,2,0.125,2.875s-0.75,2.875-0.75,4.75s0.25,3-0.125,3.875s-1.375,1-1.375,1.875s0.5,2,0.5,2.375s0.25,2.5,0.5,4.125
		s2.125,4.125,2.125,4.125l3.875,2.125c0,0,3,2.75,3.5,3s2.5,1.25,3.375,2.25s3.25,2.75,4.125,4.125s2.5,4.5,2.5,5
		s0.5,3.875,1.5,5.125s3.25,3.5,5,4.625s6.875,3.875,7.75,3.875s1.25,0.125,2.75,1.5s1.875,2.75,2.875,3.5s2,0.75,3,1.75
		s1.625,1.625,2.75,2.875s2,3.125,3,4.25s1.5,2.75,2.5,4.125s1.5,2.5,1.625,3.125s-0.875,0.875-2,1.25s-0.5,0.125-2.125,1.25
		s-2,1.875-3.625,2.75s-3,1.25-4,1.375s-1.875,1.25-3,0.125s-3.25-2.25-1.875-2.5s3.125-1.25,3.75-1.75s-0.25,0.125,0.5,1
		s2.25,1.625,2.625,0.5s3.125-3.125,3.125-3.125s0.5,0.625-0.75-0.75s-2.25-1.625-3.125-3s-0.75-3.5-2.375-4.5
		s-1.625-1.75-3.375-0.75s-2.625,0.75-3.5,0.375s-2.125-1.5-3-1.375s-1.375,0.25-1.25,1.25s2.25,2.625,0.5,3s-4.375,1-5.25,1.375
		s-2.125-0.125-1.25,1.5s0.625,3.5,1.75,4.75s2.625,2.625,2.375,1.625s0.25-1.875,1.375-1.125s1.875,1.25,3.125,2
		s1.625-0.25,1.875,2s0.625,2.25,0.375,3.5s-0.5,1.875,1.25,1.375s4.75-2.5,4.625-1.25s-0.875,2.375-2.25,3.875
		s-2.75,3.125-4.375,4.25s-3.875,3.125-5.125,4.375s-3.125,2.25-4.5,2.625s-3.5,0-4.25-0.75s-2.25-0.875-2.875-1.125
		s-1.875-0.625-2.5,0.625s0.25,3,1.375,3.125s2.875,0.375,4.5,0.375s1.5-0.25,3,0.5s2.25,1.75,3.5,2.25s2.75,0.625,3.875,0.5
		s1.5-0.875,2.5-1s3.25,0.875,4.25,1s3.75,0.125,4.125,0.125s0.75,0.875,0.75,1.75s0.625,3.5,1.75,4s4,1,4.375-0.25
		s-0.375-2,1.5-2.125s1.75,0.5,2.875,0.75s3.5,0.25,4.375,0.375s1.625-1.125,1.25,0.875s-1.375,2.625-1,3.625
		s1.25,1.125,2.125,1.125s1.25,0.75,1.625,1.625s1-0.5,3-0.5s1.125,0.75,2.5,0.75s3.5-0.125,4.375-0.375s2.25-0.375,3.125,0
		s1.5,2.5,1.25-0.5s-0.125-3.375-2-3.875s-3.25,0-5.125-0.875s-4.25-3.625-5.125-4.5s-1.625-2-3.375-2.5s-4.5-2.875-5.75-3.75
		s-3-1.875-4.625-2.75s-2.125-1.875-4-1.125s-3.75,1-4.75,0s-2.125-2.375-3.25-1.625s-0.875-0.625-1.5,1.75s-1.25,3.125-2.875,4.125
		S192.782,237.27,192.657,235.77z"/>
	<polygon opacity="0.5" fill="#F9F4A6" stroke="#010101" stroke-miterlimit="10" enable-background="new    " points="
		106.949,327.853 104.782,325.853 103.282,327.52 	"/>
	<path opacity="0.5" fill="#F9F4A6" stroke="#010101" stroke-miterlimit="10" enable-background="new    " d="M96.949,333.187
		l4.667-9.333c0,0-1.833-1.833-2.667-2.5c-0.833-0.667-2.5-1.167-3.667-1.167s-4.833-0.667-5.333-1.333
		c-0.5-0.667-1.167-3-2.167-3.5s-2.167-0.833-3.5,0.833c-1.333,1.667-1.833,2.167-1.833,3.667s1.833,3.167,2.833,4.167
		s2.5,2.833,4,4.5S96.114,333.687,96.949,333.187z"/>
	<path opacity="0.5" fill="#F9F4A6" stroke="#010101" stroke-miterlimit="10" enable-background="new    " d="M89.782,301.687
		c-1-1.333-2.5-4.667-3.667-6s-4-3.833-5.167-5.5s-3.167-4.833-3.667-6.333s-0.5-3.5-1.5-1.5s-3,5.333-3.167,7s-0.333,8.333,0.5,11
		s1.5,6,2.667,5.167s2.167-1.5,4.333-1.5c2.167,0,4.5,0.5,6.5,0.833s5.167,2.333,4.5,0.167
		C90.449,302.853,89.782,301.687,89.782,301.687z"/>
	<path opacity="0.5" fill="#F9F4A6" stroke="#010101" stroke-miterlimit="10" enable-background="new    " d="M70.282,300.353
		c-0.474-1.066-0.833-4.5-0.833-6.667s0.5-4-0.667-4.167s-2-1.833-2.667,0.167s-2,6.667-2,7.333s-0.667,2.5,0.667,3.667
		c1.333,1.167,1.667,0.833,3.167,1.833S70.949,301.853,70.282,300.353z"/>
	<path opacity="0.5" fill="#F9F4A6" stroke="#010101" stroke-miterlimit="10" enable-background="new    " d="M102.114,281.52
		c-0.833-0.5-2.5-0.167-3.167,0s-2.5,1-1.167,1.167s1.5,1.333,2.667,1C101.614,283.353,102.114,281.52,102.114,281.52z"/>
	<path opacity="0.5" fill="#F9F4A6" stroke="#010101" stroke-miterlimit="10" enable-background="new    " d="M102.282,276.52
		c0,0-3.667-1.833-4-1s-2.5,1.167-1.167,1.5s3.667,1.667,3.667,1.667L102.282,276.52z"/>
	<path opacity="0.5" fill="#F9F4A6" stroke="#010101" stroke-miterlimit="10" enable-background="new    " d="M89.782,275.187
		l-3.667,1.5c0,0,1.667,1,2.667,1S90.449,275.853,89.782,275.187z"/>
	<path opacity="0.5" fill="#F9F4A6" stroke="#010101" stroke-miterlimit="10" enable-background="new    " d="M83.949,280.187
		c-0.232-1.395-3.667-3-3.667-3s-1.167,0.333-1.167,2.333s-0.333,3.833,0.833,5.167c1.167,1.333,3.333,5,4.167,5.833
		c0.833,0.833,1.5,2,1.167-0.667C84.949,287.187,84.114,281.187,83.949,280.187z"/>
	<path opacity="0.5" fill="#F9F4A6" stroke="#010101" stroke-miterlimit="10" enable-background="new    " d="M93.282,270.687
		c0,0,1.667-5,1.5-5.833s-3.167-1.5-4-0.5s-1,3.333-0.333,4.5C91.114,270.02,93.282,270.687,93.282,270.687z"/>
	<polygon opacity="0.5" fill="#F9F4A6" stroke="#010101" stroke-miterlimit="10" enable-background="new    " points="
		85.449,266.52 86.449,263.353 83.782,262.853 	"/>
	<path opacity="0.5" fill="#F9F4A6" stroke="#010101" stroke-miterlimit="10" enable-background="new    " d="M81.782,266.02
		c0,0,1.333-2.667,1.333-4.5s-1.5-4.5-2.167-5.5s-1.833-2.167-2.667-2.833c-0.833-0.667-2.333-2.167-3-0.333
		c-0.667,1.833-2.333,3.667-3,5.833c-0.667,2.167-1,5-1,7s-0.667,5.167,0.667,5.667c1.333,0.5,3.667,0.5,5.333-0.333
		S81.782,268.52,81.782,266.02z"/>
	<polygon opacity="0.5" fill="#F9F4A6" stroke="#010101" stroke-miterlimit="10" enable-background="new    " points="
		87.949,269.687 86.449,267.353 87.282,269.52 	"/>
	<path opacity="0.5" fill="#F9F4A6" stroke="#010101" stroke-miterlimit="10" enable-background="new    " d="M54.282,237.52
		c0,0-1-0.833-2-1.833s-1.667-1.167-2.5-2.833c-0.833-1.667-1.5-4.667-3-3.833s-3.5,0.167-2.333,2.167s2.667,3.667,4,4.667
		s3.167,2.5,4.167,3S55.114,238.02,54.282,237.52z"/>
	<path opacity="0.5" fill="#F9F4A6" stroke="#010101" stroke-miterlimit="10" enable-background="new    " d="M17.449,201.687
		c1.741,1.658,2.5,2.667,3.5,4.667s0.5,2.167,2.167,2.833c1.667,0.667,2.333-0.333,3.167,1c0.833,1.333,1.5,1.833,2,3.333
		s-0.333,0.667,0.667,2.333c1,1.667,2.5,1.167,3.667,2.333c1.167,1.167,1.333,0,3.167,1.5s3.333,1.5,4.167,1.667
		c0.833,0.167,2.167,0.833,2.167-1.167s-0.167-2.833-0.667-3.333c0,0-0.333-0.167-1.667-0.333s-3.833-0.667-5.333-1
		s-1.833-4.5-2.5-5.5c-0.667-1-2.167-3.833-2.833-4.833c-0.667-1-2.667-5.5-2.167-6.167s2.833-2.167,2.833-2.167
		s-0.333-3.5-1.333-4.333s-3-1.5-4.833-0.167s-3.5,0-5.5,0.667s-2.833,3.333-3,4.667C15.114,197.687,13.949,198.353,17.449,201.687z
		"/>
	<path opacity="0.5" fill="#F9F4A6" stroke="#010101" stroke-miterlimit="10" enable-background="new    " d="M41.114,216.687"/>
	<path opacity="0.5" fill="#F9F4A6" stroke="#010101" stroke-miterlimit="10" enable-background="new    " d="M2.782,194.353
		l-0.833-2.167c0,0-2.833,1.5-1.667,2S2.782,194.353,2.782,194.353z"/>
	<path opacity="0.5" fill="#F9F4A6" stroke="#010101" stroke-miterlimit="10" enable-background="new    " d="M9.614,197.52
		l-2.667,0.167c0,0,0.833,1.167,1.333,1.333S9.614,197.52,9.614,197.52z"/>
	<path opacity="0.5" fill="#F9F4A6" stroke="#010101" stroke-miterlimit="10" enable-background="new    " d="M11.614,189.853
		l-1.167-0.333L11.614,189.853z"/>
	<path opacity="0.5" fill="#F9F4A6" stroke="#010101" stroke-miterlimit="10" enable-background="new    " d="M321.782,102.187
		c1.313-0.525,2-4.333,2.667-5s0.167-2.333-1.333-2.833s-1.5-1.333-3.833-0.5s-4.667,1.833-5.667,3s-0.833,2.333,1.167,3.667
		S320.949,102.52,321.782,102.187z"/>
	<path opacity="0.5" fill="#F9F4A6" stroke="#010101" stroke-miterlimit="10" enable-background="new    " d="M270.614,100.853
		c1.955-0.733,3.333-3.167,3.5-5.167s-0.167-3-0.5-5.333s-1.667-5.5-4-5.5s-3.167-0.667-4.667,1.167s-1.167,1.833-3,4
		s-3.667,3-2.167,4.167s2.167,1.167,4,2.333S267.949,101.853,270.614,100.853z"/>
	<path opacity="0.5" fill="#F9F4A6" stroke="#010101" stroke-miterlimit="10" enable-background="new    " d="M240.907,289.02
		c-0.152-2.123-1.75-3.625-2.125-3.125s-0.25,1.5-0.625,2.75s-0.625,2-1.75,1.625s-2.125-1-3-0.875s-0.375,1.5,0.25,2.625
		s2.125,3.125,2.75,3.125S241.032,290.77,240.907,289.02z"/>
	<path opacity="0.5" fill="#F9F4A6" stroke="#010101" stroke-miterlimit="10" enable-background="new    " d="M238.782,302.52
		c-1.11,1.443-3.875,0.125-2.375,1s3,3,3,3s-0.375,1.5,0.5,2.5s0.875,0.25,1.875-0.75s2-5.5,1.75-6.75
		S240.032,300.895,238.782,302.52z"/>
	<path opacity="0.5" fill="#F9F4A6" stroke="#010101" stroke-miterlimit="10" enable-background="new    " d="M234.907,300.645
		c0,0-3-1.125-3.625-0.375s-2.375,0.875-0.5,1.25S234.907,300.645,234.907,300.645z"/>
	<path opacity="0.5" fill="#F9F4A6" stroke="#010101" stroke-miterlimit="10" enable-background="new    " d="M226.907,300.77
		l-1.25,0.5L226.907,300.77z"/>
	<path opacity="0.5" fill="#F9F4A6" stroke="#010101" stroke-miterlimit="10" enable-background="new    " d="M228.532,308.645
		l-0.25,1.875L228.532,308.645z"/>
	<path opacity="0.5" fill="#F9F4A6" stroke="#010101" stroke-miterlimit="10" enable-background="new    " d="M233.532,308.645
		c0,0-0.125-4.875-0.625-3.75s-1,3.375-0.875,4S233.157,309.52,233.532,308.645z"/>
	<path opacity="0.5" fill="#F9F4A6" stroke="#010101" stroke-miterlimit="10" enable-background="new    " d="M236.032,310.645
		c0,0-4,0.625-3.125,2.125s2.875,2.125,2.875,2.125l1.625,0.625L236.032,310.645z"/>
	<path opacity="0.5" fill="#F9F4A6" stroke="#010101" stroke-miterlimit="10" enable-background="new    " d="M249.907,329.145"/>
	<path opacity="0.5" fill="#F9F4A6" stroke="#010101" stroke-miterlimit="10" enable-background="new    " d="M249.282,329.145
		c0,0-1.25-1.125-2.875-1.25s-3.25,1-3.875,2.25s-1.875,1.625-3.25,1.625s-5.125,0.625-5.5,1.25s1.75,0,2.125,1.25
		s-2.75,3-3.5,3.375s1,0.625,2,0.625s2.125,2.25,3.25,0.5s4.75-5.5,5.875-5.75S249.782,329.895,249.282,329.145z"/>
	<path opacity="0.5" fill="#F9F4A6" stroke="#010101" stroke-miterlimit="10" enable-background="new    " d="M228.782,340.52
		c-0.279-0.696-2.375-1.25-3-1.25s-3.25,0.125-1.875,0.75s3.125,2.75,4,3.125S229.032,341.145,228.782,340.52z"/>
	<path opacity="0.5" fill="#F9F4A6" stroke="#010101" stroke-miterlimit="10" enable-background="new    " d="M225.907,394.145
		c0,0-0.875-1.75-1.125-1.375s-2.25,1.75-1.75,2s3,0.375,3,0.375L225.907,394.145z"/>
	<path opacity="0.5" fill="#F9F4A6" stroke="#010101" stroke-miterlimit="10" enable-background="new    " d="M224.282,401.52
		c-1.089,0.454-2.125,3.375-2.125,3.375s-0.125,1.25,0.625,2.625s0.75,2.5,1.25,4s-0.375,3.375,1.5,4.25s3.125,1.5,5,1.125
		s1-0.625,0.5-2s0.75-2.5,1.375-3s1.625,0.5,1.5-1.625S225.782,400.895,224.282,401.52z"/>
	<path opacity="0.5" fill="#F9F4A6" stroke="#010101" stroke-miterlimit="10" enable-background="new    " d="M231.032,419.27
		l-0.5,1L231.032,419.27z"/>
	<path opacity="0.5" fill="#F9F4A6" stroke="#010101" stroke-miterlimit="10" enable-background="new    " d="M243.532,428.27
		c0.75-0.625,1.25-2.375,1.5-3.375s-0.875-1.125-1.5,0.125S243.532,428.27,243.532,428.27z"/>
	<path opacity="0.5" fill="#F9F4A6" stroke="#010101" stroke-miterlimit="10" enable-background="new    " d="M247.782,432.395
		c0-1.425,1.625-0.75,2.875-0.5s1.5,1.125,1.125,2.5s-1.125,1.75-1.875,0.875S247.782,433.27,247.782,432.395z"/>
</g>
</svg>
