<?xml version="1.0" encoding="utf-8"?>
<!-- Generator: Adobe Illustrator 17.0.0, SVG Export Plug-In . SVG Version: 6.00 Build 0)  -->
<!DOCTYPE svg PUBLIC "-//W3C//DTD SVG 1.1//EN" "http://www.w3.org/Graphics/SVG/1.1/DTD/svg11.dtd">
<svg version="1.1" id="Réteg_1" xmlns="http://www.w3.org/2000/svg" xmlns:xlink="http://www.w3.org/1999/xlink" x="0px" y="0px"
	 width="60px" height="60px" viewBox="0 0 60 60" enable-background="new 0 0 60 60" xml:space="preserve">
<g id="sp-cataluna_2_">
	<path fill="#F7F4AC" stroke="#030303" stroke-miterlimit="10" enable-background="new    " d="M54.243,19.391
		c0,0-2.267-1.371-3.017-1.322c-0.75,0.049-0.863,0.243-1.508,0.498c-0.645,0.255-1.458,0.299-1.859,0.348
		c-0.402,0.049-0.572-0.222-0.913,0.205c-0.341,0.427-0.524,0.836-0.824,0.987c-0.299,0.151-0.948,0.441-1.921-0.092
		c-0.973-0.533-2.268-1.352-2.623-1.512c-0.336-0.152-1.629-0.753-2.388-0.532c-0.042,0.012-0.082,0.027-0.12,0.044
		c0,0-1.33,0.092-2.461,0.753s-1.504-1.411-1.504-1.411s-0.321-1.906-3.449-1.712c0,0-0.549,0.068-0.992,0.284
		c-0.443,0.216-2.512,0.652-2.674,0.576c-0.162-0.077-1.291-0.941-1.226-1.865c0.065-0.925,0.375-2.033,0.529-2.277
		c0.154-0.243-2.26-2.345-2.59-2.544s-0.228-0.545-1.464-0.12c0,0-0.904-0.743-1.184-0.982c-0.28-0.238-2.29-1.026-3.14-1.219
		c0,0-1.783-1.57-2.591-1.538c0,0-0.255,0.844-0.107,1.539c0,0-0.228,1.527-1.198,1.653c0,0,0.342,1.05,0.689,1.32
		c0.348,0.27,0.772,1.39,0.734,1.699c-0.039,0.309-0.077,0.474-0.425,0.971c-0.347,0.496-0.618,0.321-0.541,1.026
		s0.232,1.593,0.27,2.018c0.039,0.425,0.232,0.849-0.077,1.622c0,0-0.337,0.927-0.651,1.699s-0.508,2.124-0.855,2.857
		c-0.348,0.734-0.425,1.429-0.849,1.853c-0.425,0.425-1.158,0.386-1.158,0.927s0.425,0.965,0,1.429
		c-0.425,0.463-0.849,0.888-1.467,1.351s-1.544,0.579-1.931,0.772c-0.386,0.193-0.965,1.12-1.081,1.39s-0.232,1.362,0,1.666
		s1.042,0.226,1.081,0.535c0.039,0.309-0.154,1.66-0.463,1.853c-0.309,0.193-1.313,0.579-1.313,1.197c0,0.618-0.077,1.081,0,1.737
		s-0.03,1.622-0.034,2.085s-0.97,1.12-0.97,1.12S5.63,41.09,5.437,41.167s-1.004-0.154-1.042,0.193
		c-0.039,0.347-0.077,0.734,0,1.351s0.425,1.313,0.502,1.66c0.077,0.348,0.386,0.463,0.116,0.888s-0.888,1.236-0.888,1.853
		s0.27,0.541,0,1.004s-0.849,0.888-0.849,1.042S2.89,49.814,3.083,49.93c0.193,0.116,0.386-0.077,0.927,0.348
		c0.541,0.425,0.541,1.081,0.463,1.197c-0.077,0.116-0.386,0.309-0.077,0.656s1.081,0.618,1.081,0.618l1.042,0.888l0.463,0.888
		c0,0,0.535,0.664,0.884,0.251c0.349-0.412,1.096-1.168,1.489-1.386c0.393-0.218,1.55-0.726,1.839-0.536
		c0.289,0.191,0.749,0.742,0.413,0.774c-0.336,0.031-0.997,0.04-1.362,0.126s-0.988,0.416-0.717,0.535
		c0.271,0.12,0.678,0.065,1.03-0.03c0.352-0.095,1.367-0.959,1.66-1.144c0.293-0.184,1.245-0.566,1.558-0.792
		s0.868-0.624,0.541-1.042c-0.327-0.419-1.479-1.635-1.815-1.429c0,0-0.127,0.276-0.386,0.039c0,0-0.622-0.468-0.095-0.789
		c0,0,3.779-3.258,4.253-3.628c0.475-0.37,2.367-1.412,3.332-0.602c0,0,0.327,0.003,1.051-0.848c0,0,0.872-0.655,1.84-0.29
		c0,0,1.069,0.11,1.752-0.457c0.684-0.567,1.57-0.261,1.996-0.248c0.426,0.012,1.981-0.048,2.387-0.21
		c0.406-0.162,1.546-0.269,2.052-0.317c0.506-0.048,1.887-0.199,2.064-0.374c0.177-0.175,1.008-0.044,1.384-0.043
		s1.001,0.265,1.573-0.649c0,0,1.617-2.28,1.914-2.519c0.297-0.239,2.669-1.494,4.496-2.114c0,0,3.178-1.015,3.797-1.324
		c0.619-0.309,2.517-1.334,3.221-1.434c0,0,1.799-0.643,1.937-0.866c0.137-0.223,0.388-0.629,0.669-0.824s0.924-0.625,1.287-0.772
		s1.059-0.633,1.213-0.93s0.473-1.033,0.154-1.687c-0.319-0.655-0.429-0.537-0.27-1.158c0.158-0.621,0.386-0.93,0-1.351
		s-0.983-0.705-1.11-1.53c-0.126-0.825,0.061-1.369,0.373-1.58s0.638-0.426,0.638-0.426s0.38,0.304,0.505,0.336
		c0.125,0.031,0.967,0.296,1.173-0.116c0.206-0.412,0.925-1.088,0.93-1.356c0.005-0.268-0.617-0.425-0.888-0.463
		s-1.077-0.005-1.233-0.273C54.358,20.782,54.196,19.76,54.243,19.391z"/>
</g>
</svg>
